<svg id="Layer_1" data-name="Layer 1" xmlns="http://www.w3.org/2000/svg" xmlns:xlink="http://www.w3.org/1999/xlink" viewBox="0 0 290 320"><defs><style>.Graphic-Style-3{fill:#dcdcdc;}.cls-1{fill:#e6e6e6;}.cls-2{fill:#fff;}.Graphic-Style{fill:none;stroke:#dcdcdc;stroke-linejoin:round;stroke-width:5px;}.Graphic-Style-2{fill:#b4b4b4;}</style><symbol id="thumb-logo" data-name="thumb-logo" viewBox="0 0 86 44"><rect class="Graphic-Style-3" width="86" height="44"/></symbol></defs><title>1-3_column</title><rect class="cls-1" x="-5.71" y="-6.31" width="301.43" height="332.61"/><rect class="cls-2" x="37.89" y="21.83" width="214" height="298"/><line class="Graphic-Style" x1="57.89" y1="255.33" x2="109.89" y2="255.33"/><line class="Graphic-Style" x1="57.89" y1="268.33" x2="109.89" y2="268.33"/><line class="Graphic-Style" x1="57.89" y1="280.33" x2="94.89" y2="280.33"/><rect class="Graphic-Style-2" x="57.89" y="193.83" width="52" height="47"/><line class="Graphic-Style" x1="118.89" y1="255.33" x2="170.89" y2="255.33"/><line class="Graphic-Style" x1="118.89" y1="268.33" x2="170.89" y2="268.33"/><line class="Graphic-Style" x1="118.89" y1="280.33" x2="155.89" y2="280.33"/><rect class="Graphic-Style-2" x="118.89" y="193.83" width="52" height="47"/><line class="Graphic-Style" x1="179.89" y1="255.33" x2="231.89" y2="255.33"/><line class="Graphic-Style" x1="179.89" y1="268.33" x2="231.89" y2="268.33"/><line class="Graphic-Style" x1="179.89" y1="280.33" x2="216.89" y2="280.33"/><rect class="Graphic-Style-2" x="179.89" y="193.83" width="52" height="47"/><use width="86" height="44" transform="translate(101.69 46.83)" xlink:href="#thumb-logo"/><line class="Graphic-Style" x1="57.89" y1="118.33" x2="231.89" y2="118.33"/><line class="Graphic-Style" x1="57.89" y1="146.33" x2="205.89" y2="146.33"/><line class="Graphic-Style" x1="57.89" y1="132.33" x2="231.89" y2="132.33"/></svg>