<svg id="Layer_1" data-name="Layer 1" xmlns="http://www.w3.org/2000/svg" xmlns:xlink="http://www.w3.org/1999/xlink" viewBox="0 0 290 320"><defs><style>.Graphic-Style-3{fill:#dcdcdc;}.cls-1{fill:#e6e6e6;}.Graphic-Style,.cls-2{fill:none;stroke-linejoin:round;stroke-width:5px;}.cls-2{stroke:#b4b4b4;}.Graphic-Style{stroke:#dcdcdc;}.Graphic-Style-2{fill:#b4b4b4;}</style><symbol id="thumb-logo" data-name="thumb-logo" viewBox="0 0 86 44"><rect class="Graphic-Style-3" width="86" height="44"/></symbol></defs><title>1-3_column-f</title><use width="86" height="44" transform="translate(101.69 27)" xlink:href="#thumb-logo"/><rect class="cls-1" y="95" width="290" height="70"/><line class="cls-2" x1="57.54" y1="116.33" x2="231.54" y2="116.33"/><line class="cls-2" x1="57.54" y1="130.33" x2="231.54" y2="130.33"/><line class="cls-2" x1="57.54" y1="144.33" x2="205.54" y2="144.33"/><line class="Graphic-Style" x1="57.54" y1="255.33" x2="109.54" y2="255.33"/><line class="Graphic-Style" x1="57.54" y1="268.33" x2="109.54" y2="268.33"/><line class="Graphic-Style" x1="57.54" y1="280.33" x2="94.54" y2="280.33"/><rect class="Graphic-Style-2" x="57.54" y="193.83" width="52" height="47"/><line class="Graphic-Style" x1="118.54" y1="255.33" x2="170.54" y2="255.33"/><line class="Graphic-Style" x1="118.54" y1="268.33" x2="170.54" y2="268.33"/><line class="Graphic-Style" x1="118.54" y1="280.33" x2="155.54" y2="280.33"/><rect class="Graphic-Style-2" x="118.54" y="193.83" width="52" height="47"/><line class="Graphic-Style" x1="179.54" y1="255.33" x2="231.54" y2="255.33"/><line class="Graphic-Style" x1="179.54" y1="268.33" x2="231.54" y2="268.33"/><line class="Graphic-Style" x1="179.54" y1="280.33" x2="216.54" y2="280.33"/><rect class="Graphic-Style-2" x="179.54" y="193.83" width="52" height="47"/></svg>