<svg id="Layer_1" data-name="Layer 1" xmlns="http://www.w3.org/2000/svg" viewBox="0 0 290 320"><defs><style>.cls-1{fill:none;stroke:#b4b4b4;stroke-linejoin:round;stroke-width:5px;}</style></defs><title>simple_text</title><line class="cls-1" x1="57.89" y1="117.76" x2="231.89" y2="117.76"/><line class="cls-1" x1="57.89" y1="131.76" x2="231.89" y2="131.76"/><line class="cls-1" x1="57.89" y1="145.76" x2="231.89" y2="145.76"/><line class="cls-1" x1="57.89" y1="159.52" x2="231.89" y2="159.52"/><line class="cls-1" x1="57.89" y1="173.52" x2="231.89" y2="173.52"/><line class="cls-1" x1="57.89" y1="48.95" x2="231.89" y2="48.95"/><line class="cls-1" x1="57.89" y1="62.95" x2="231.89" y2="62.95"/><line class="cls-1" x1="57.89" y1="76.95" x2="231.89" y2="76.95"/><line class="cls-1" x1="57.89" y1="90.71" x2="231.89" y2="90.71"/><line class="cls-1" x1="57.89" y1="104.71" x2="231.89" y2="104.71"/><line class="cls-1" x1="57.89" y1="187.52" x2="231.89" y2="187.52"/><line class="cls-1" x1="57.89" y1="201.29" x2="231.89" y2="201.29"/><line class="cls-1" x1="57.89" y1="215.29" x2="231.89" y2="215.29"/><line class="cls-1" x1="57.89" y1="229.29" x2="231.89" y2="229.29"/><line class="cls-1" x1="57.89" y1="243.05" x2="231.89" y2="243.05"/><line class="cls-1" x1="57.89" y1="257.05" x2="231.89" y2="257.05"/><line class="cls-1" x1="57.89" y1="271.05" x2="190.62" y2="271.05"/></svg>