<svg xmlns="http://www.w3.org/2000/svg" width="24" height="21.078" viewBox="0 0 24 21.078"><defs><style>.a{fill:#4a566e;}.b{fill:#00b594;}.c{fill:#ffcc03;}.d{fill:#fff;}</style></defs><g transform="translate(0 -18.8)"><g transform="translate(0 18.8)"><path class="a" d="M2.767,18.8h13.99a2.773,2.773,0,0,1,2.767,2.767V35.961a2.773,2.773,0,0,1-2.767,2.767H2.767A2.773,2.773,0,0,1,0,35.961V21.536A2.767,2.767,0,0,1,2.767,18.8Z" transform="translate(0 -18.8)"/><path class="b" d="M9.047,116.676l-4.1-4.1L0,117.515v3.264a2.773,2.773,0,0,0,2.767,2.767h13.99a2.773,2.773,0,0,0,2.767-2.767v-5.316L14.891,110.8Z" transform="translate(0 -103.65)"/><circle class="c" cx="1.741" cy="1.741" r="1.741" transform="translate(7.181 4.85)"/><circle class="d" cx="4.477" cy="4.477" r="4.477" transform="translate(15.047 12.124)"/></g><g transform="translate(17.409 32.665)"><path class="b" d="M242.8,197.853a.637.637,0,0,1,.653-.653.657.657,0,0,1,.653.653v4.228a.653.653,0,1,1-1.306,0Z" transform="translate(-241.339 -197.2)"/><path class="b" d="M242.987,198.288a.637.637,0,0,1,.9-.9l1.492,1.492a.637.637,0,0,1-.9.9Z" transform="translate(-241.339 -197.2)"/><path class="b" d="M225.648,197.387a.637.637,0,1,1,.9.9l-1.461,1.492a.637.637,0,0,1-.9-.9Z" transform="translate(-224 -197.2)"/></g></g></svg>