<svg xmlns="http://www.w3.org/2000/svg" width="65.105" height="65.105" viewBox="0 0 65.105 65.105"><defs><style>.a{fill:#b0b0b0;}.b{fill:#a9a9a9;}.c{fill:#c1c1c1;}.d{fill:#303030;}.e{fill:#3a3a3a;}.f{fill:#adadad;}</style></defs><g transform="translate(0)"><g transform="translate(0 0)"><circle class="a" cx="23.018" cy="23.018" r="23.018" transform="translate(32.553 65.105) rotate(-135)"/><g transform="translate(9.534 12.907)"><path class="b" d="M117.088,88.469a23.022,23.022,0,0,0,31.439,32.018,23.02,23.02,0,1,1-31.439-32.018Z" transform="translate(-106.113 -88.469)"/></g><g transform="translate(14.131 11.234)"><path class="c" d="M136.709,106.023A21.371,21.371,0,0,0,98.4,93a21.372,21.372,0,1,1,35.472,23.679A21.271,21.271,0,0,0,136.709,106.023Z" transform="translate(-98.397 -82.276)"/></g></g><g transform="translate(22.377 24.109)"><g transform="translate(0)"><g transform="translate(16.96)"><path class="d" d="M140.256,132.812c0,1.579.759,2.859,1.7,2.859s1.7-1.28,1.7-2.859-.759-2.859-1.7-2.859S140.256,131.233,140.256,132.812Z" transform="translate(-140.256 -129.953)"/></g><path class="d" d="M203.06,132.812c0,1.579.759,2.859,1.7,2.859s1.7-1.28,1.7-2.859-.759-2.859-1.7-2.859S203.06,131.233,203.06,132.812Z" transform="translate(-203.06 -129.953)"/></g></g><path class="e" d="M151.6,169.28a15.567,15.567,0,0,1-30.934,0Z" transform="translate(-103.579 -134.55)"/><path class="f" d="M159.379,198.534a15.553,15.553,0,0,1-21,.336l.143-.335C148.906,193.471,159.238,198.465,159.379,198.534Z" transform="translate(-116.143 -153.843)"/></g></svg>