<svg xmlns="http://www.w3.org/2000/svg" width="52.816" height="52.816" viewBox="0 0 52.816 52.816"><defs><style>.a{fill:#b0b0b0;}.b{fill:#a9a9a9;}.c{fill:#c1c1c1;}.d{fill:#3a3a3a;}.e{fill:#adadad;}.f{fill:gray;}</style></defs><g transform="translate(0 0)"><g transform="translate(0 0)"><g transform="translate(0)"><ellipse class="a" cx="23.018" cy="23.018" rx="23.018" ry="23.018" transform="translate(7.374 52.816) rotate(-99.217)"/></g><g transform="translate(3.39 6.762)"><path class="b" d="M1030.785,306.451a23.022,23.022,0,0,0,31.439,32.018,23.02,23.02,0,1,1-31.439-32.018Z" transform="translate(-1019.81 -306.451)"/></g><g transform="translate(7.986 5.09)"><path class="c" d="M1050.407,324a21.371,21.371,0,0,0-38.312-13.028,21.372,21.372,0,1,1,35.472,23.679A21.272,21.272,0,0,0,1050.407,324Z" transform="translate(-1012.095 -300.258)"/></g></g><g transform="translate(16.624 31.118)"><path class="d" d="M1074.976,396.643a9.847,9.847,0,0,1-19.567,0Z" transform="translate(-1055.409 -396.643)"/><path class="e" d="M1079.9,415.147a9.838,9.838,0,0,1-13.285.212l.09-.212C1073.273,411.944,1079.808,415.1,1079.9,415.147Z" transform="translate(-1063.356 -408.696)"/></g><g transform="translate(9.006 15.609)"><path class="f" d="M1027.2,343.318c0-.011,0-.023,0-.034a3.921,3.921,0,0,1,3.849-4.072,3.387,3.387,0,0,1,3.265,2.556h0a3.386,3.386,0,0,1,3.265-2.556,3.921,3.921,0,0,1,3.849,4.072c0,.011,0,.023,0,.034.012.462,0,5.168-7.111,9h0C1027.2,348.486,1027.187,343.78,1027.2,343.318Z" transform="translate(-1006.624 -339.212)"/><path class="f" d="M1103.388,343.318c0-.011,0-.023,0-.034a3.921,3.921,0,0,1,3.849-4.072,3.387,3.387,0,0,1,3.266,2.556h0a3.386,3.386,0,0,1,3.265-2.556,3.921,3.921,0,0,1,3.849,4.072c0,.011,0,.023,0,.034.013.462,0,5.168-7.111,9h0C1103.388,348.486,1103.376,343.78,1103.388,343.318Z" transform="translate(-1103.387 -339.212)"/></g></g></svg>