<svg xmlns="http://www.w3.org/2000/svg" width="65.105" height="65.105" viewBox="0 0 65.105 65.105"><defs><style>.a{fill:#828282;}.b{fill:#9f9f9f;}.c{fill:#303030;}.d{fill:#2a2a2a;}</style></defs><g transform="translate(0 0)"><circle class="a" cx="23.018" cy="23.018" r="23.018" transform="translate(0 32.553) rotate(-45)"/><g transform="translate(6.085 6.211)"><ellipse class="a" cx="23.018" cy="23.018" rx="23.018" ry="23.018" transform="translate(0 45.442) rotate(-80.783)"/><path class="a" d="M1051.249,524.432a23.022,23.022,0,0,1-31.439,32.018,23.02,23.02,0,1,0,31.439-32.018Z" transform="translate(-1012.799 -517.67)"/><path class="b" d="M1050.406,541.986a21.37,21.37,0,0,0-38.311-13.027,21.372,21.372,0,1,1,35.471,23.679A21.272,21.272,0,0,0,1050.406,541.986Z" transform="translate(-1003.904 -513.557)"/><g transform="translate(16.232 19.266)"><ellipse class="c" cx="1.696" cy="2.859" rx="1.696" ry="2.859"/></g><g transform="translate(33.192 19.266)"><path class="c" d="M1120.15,573.593c0,1.579-.759,2.859-1.7,2.859s-1.7-1.28-1.7-2.859.759-2.859,1.7-2.859S1120.15,572.014,1120.15,573.593Z" transform="translate(-1116.758 -570.734)"/></g><path class="d" d="M1072.067,613.223a.76.76,0,0,0,1.236-.828,11.538,11.538,0,0,0-21.337-.212.759.759,0,0,0,1.226.838C1056.561,609.754,1063.712,605.107,1072.067,613.223Z" transform="translate(-1036.225 -576.584)"/><rect class="c" width="2.183" height="7.283" transform="translate(16.015 14.54) rotate(-45)"/><rect class="c" width="2.183" height="7.283" transform="translate(35.258 12.996) rotate(45)"/></g></g></svg>