<svg xmlns="http://www.w3.org/2000/svg" width="65.105" height="65.105" viewBox="0 0 65.105 65.105"><defs><style>.a{fill:#b0b0b0;}.b{fill:#a9a9a9;}.c{fill:#c1c1c1;}.d{fill:#303030;}.e{fill:#3a3a3a;}.f{fill:#adadad;}</style></defs><g transform="translate(0)"><g transform="translate(0 0)"><g transform="translate(0)"><circle class="a" cx="23.018" cy="23.018" r="23.018" transform="translate(32.553 65.105) rotate(-135)"/><g transform="translate(9.534 12.906)"><path class="b" d="M802.361,524.432A23.022,23.022,0,0,0,833.8,556.45a23.02,23.02,0,1,1-31.44-32.018Z" transform="translate(-791.386 -524.432)"/></g><g transform="translate(14.131 11.234)"><path class="c" d="M821.981,541.986a21.37,21.37,0,0,0-38.312-13.027,21.372,21.372,0,1,1,35.472,23.679A21.275,21.275,0,0,0,821.981,541.986Z" transform="translate(-783.67 -518.239)"/></g></g><g transform="translate(22.376 25.41)"><g transform="translate(0)"><g transform="translate(16.96)"><ellipse class="d" cx="1.696" cy="2.859" rx="1.696" ry="2.859"/></g><g transform="translate(0 0)"><path class="d" d="M888.334,573.593c0,1.579.759,2.859,1.7,2.859s1.7-1.28,1.7-2.859-.759-2.859-1.7-2.859S888.334,572.014,888.334,573.593Z" transform="translate(-888.334 -570.734)"/></g></g></g><g transform="translate(22.16 19.141)"><rect class="d" width="2.183" height="7.283" transform="translate(15.636 6.694) rotate(-135)"/><rect class="d" width="2.183" height="7.283" transform="translate(6.693 5.15) rotate(135)"/></g></g><g transform="translate(24.073 34.068)"><path class="e" d="M831.81,611.81c.492-5.083,4.112-9.028,8.5-9.018s7.991,3.969,8.461,9.055Z" transform="translate(-831.81 -602.792)"/><path class="f" d="M848.77,627.687s-7.14-7.164-16.96-.037Z" transform="translate(-831.81 -618.224)"/></g></g></svg>