<svg xmlns="http://www.w3.org/2000/svg" width="52.816" height="52.816" viewBox="0 0 52.816 52.816"><defs><style>.a{fill:#b0b0b0;}.b{fill:#a9a9a9;}.c{fill:#c1c1c1;}.d{fill:#3a3a3a;}.e{fill:#adadad;}.f{fill:#303030;}</style></defs><g transform="translate(0)"><g transform="translate(0 0)"><ellipse class="a" cx="23.018" cy="23.018" rx="23.018" ry="23.018" transform="translate(7.374 52.816) rotate(-99.217)"/><g transform="translate(3.39 6.762)"><path class="b" d="M568.274,79.747a23.021,23.021,0,0,0,31.439,32.017,23.02,23.02,0,1,1-31.439-32.017Z" transform="translate(-557.299 -79.747)"/></g><g transform="translate(7.986 5.09)"><path class="c" d="M587.894,97.3a21.37,21.37,0,0,0-38.311-13.028,21.372,21.372,0,1,1,35.472,23.679A21.271,21.271,0,0,0,587.894,97.3Z" transform="translate(-549.583 -73.554)"/></g></g><g transform="translate(16.625 28.711)"><path class="d" d="M592.9,169.757a9.847,9.847,0,0,1,19.567,0Z" transform="translate(-592.897 -161.025)"/></g><path class="e" d="M612.464,186.048s-8.255-6.086-19.567,0Z" transform="translate(-576.273 -148.197)"/><g transform="translate(12.799 18.613)"><g transform="translate(20.597)"><path class="f" d="M584.158,131.8a.976.976,0,0,0,.6-1.746l-3.32-2.587,3.432-2.018a.976.976,0,1,0-.989-1.682l-4.669,2.746a.975.975,0,0,0-.1,1.611l4.453,3.469A.971.971,0,0,0,584.158,131.8Z" transform="translate(-578.73 -123.629)"/></g><g transform="translate(0 0)"><path class="f" d="M656.2,131.8a.971.971,0,0,0,.6-.206l4.452-3.469a.975.975,0,0,0-.105-1.611l-4.669-2.746a.976.976,0,0,0-.989,1.682l3.432,2.018-3.32,2.587a.976.976,0,0,0,.6,1.746Z" transform="translate(-655.003 -123.63)"/></g></g></g></svg>