<svg xmlns="http://www.w3.org/2000/svg" width="65.105" height="65.105" viewBox="0 0 65.105 65.105"><defs><style>.a{fill:#b0b0b0;}.b{fill:#a9a9a9;}.c{fill:#c1c1c1;}.d{fill:#3a3a3a;}.e{fill:#303030;}</style></defs><g transform="translate(0)"><g transform="translate(0 0)"><circle class="a" cx="23.018" cy="23.018" r="23.018" transform="translate(32.553 65.105) rotate(-135)"/><g transform="translate(9.534 12.906)"><path class="b" d="M117.088,968.4a23.022,23.022,0,0,0,31.439,32.018A23.02,23.02,0,1,1,117.088,968.4Z" transform="translate(-106.113 -968.396)"/></g><g transform="translate(14.131 11.234)"><path class="c" d="M136.709,985.95A21.371,21.371,0,0,0,98.4,972.923,21.373,21.373,0,1,1,133.869,996.6,21.272,21.272,0,0,0,136.709,985.95Z" transform="translate(-98.397 -962.203)"/></g></g><path class="d" d="M153.954,1070.7a7.305,7.305,0,0,1,4.86-1.741,7.685,7.685,0,0,1,4.828,1.751,6.767,6.767,0,0,1,1.615,2,5.468,5.468,0,0,1,.632,2.42.444.444,0,0,1-.8.277,10.132,10.132,0,0,0-1.381-1.5,7.815,7.815,0,0,0-1.535-1.024,7.691,7.691,0,0,0-3.387-.818,7.056,7.056,0,0,0-3.346.8,8.676,8.676,0,0,0-2.91,2.539.444.444,0,0,1-.8-.275A6.12,6.12,0,0,1,153.954,1070.7Z" transform="translate(-126.261 -1028.898)"/><g transform="translate(15.825 31.203)"><path class="e" d="M204.134,1041.227h0c.3-.088.6-.17.895-.254.623-.174,1.211-.339,1.779-.536a15.909,15.909,0,0,0,2.344-1,13.969,13.969,0,0,0,2.118-1.374,20.964,20.964,0,0,0,2.019-1.851.223.223,0,0,1,.381.168,5.436,5.436,0,0,1-1.114,2.913,7.083,7.083,0,0,1-2.4,2.044,7.486,7.486,0,0,1-2.9.834l-.117.008q-.209.011-.413.011a6.087,6.087,0,0,1-2.62-.55.223.223,0,0,1,.033-.416Zm.028.1Z" transform="translate(-203.973 -1036.15)"/><path class="e" d="M116.13,1036.168a.224.224,0,0,1,.248.047,20.9,20.9,0,0,0,2.02,1.851,13.907,13.907,0,0,0,2.117,1.373,15.869,15.869,0,0,0,2.345,1c.567.2,1.156.362,1.792.54.287.08.58.162.882.25h0a.223.223,0,0,1,.032.416,6.086,6.086,0,0,1-2.62.55q-.2,0-.413-.011l-.117-.008a7.48,7.48,0,0,1-2.9-.834,7.083,7.083,0,0,1-2.4-2.044,5.439,5.439,0,0,1-1.113-2.913A.224.224,0,0,1,116.13,1036.168Z" transform="translate(-92.238 -1036.15)"/></g></g></svg>