<svg xmlns="http://www.w3.org/2000/svg" width="65.105" height="65.105" viewBox="0 0 65.105 65.105"><defs><style>.a{fill:#b0b0b0;}.b{fill:#a9a9a9;}.c{fill:#c1c1c1;}.d{fill:#303030;}.e{fill:#414042;}.f{fill:#2a2a2a;}</style></defs><g transform="translate(0)"><g transform="translate(0 0)"><g transform="translate(0)"><circle class="a" cx="23.018" cy="23.018" r="23.018" transform="translate(32.553 65.105) rotate(-135)"/><g transform="translate(9.534 12.907)"><path class="b" d="M345.512,88.469a23.022,23.022,0,0,0,31.44,32.018,23.02,23.02,0,1,1-31.44-32.018Z" transform="translate(-334.537 -88.469)"/></g><g transform="translate(14.131 11.234)"><path class="c" d="M365.132,106.023A21.37,21.37,0,0,0,326.821,93a21.372,21.372,0,1,1,35.472,23.679A21.273,21.273,0,0,0,365.132,106.023Z" transform="translate(-326.821 -82.276)"/></g></g><g transform="translate(22.376 24.109)"><g transform="translate(0)"><g transform="translate(16.96)"><path class="d" d="M368.681,132.812c0,1.579.759,2.859,1.7,2.859s1.7-1.28,1.7-2.859-.759-2.859-1.7-2.859S368.681,131.233,368.681,132.812Z" transform="translate(-368.681 -129.953)"/></g><path class="d" d="M431.485,132.812c0,1.579.759,2.859,1.7,2.859s1.7-1.28,1.7-2.859-.759-2.859-1.7-2.859S431.485,131.233,431.485,132.812Z" transform="translate(-431.485 -129.953)"/></g></g></g><g transform="translate(18.884 17.971)"><path class="e" d="M428.146,111.4c.248-.072.488-.14.724-.206.517-.145,1.006-.281,1.477-.445a13.092,13.092,0,0,0,1.94-.825,11.513,11.513,0,0,0,1.753-1.137,17.305,17.305,0,0,0,1.668-1.529.1.1,0,0,1,.171.075,4.386,4.386,0,0,1-.9,2.35,5.741,5.741,0,0,1-1.947,1.656,6.059,6.059,0,0,1-2.353.676l-.095.006a5.069,5.069,0,0,1-2.454-.436.1.1,0,0,1,.015-.186Z" transform="translate(-428.074 -107.224)"/><path class="e" d="M363.482,111.4c-.248-.072-.489-.14-.724-.206-.517-.145-1.006-.281-1.478-.445a13.086,13.086,0,0,1-1.939-.825,11.523,11.523,0,0,1-1.753-1.137,17.368,17.368,0,0,1-1.668-1.529.1.1,0,0,0-.171.075,4.383,4.383,0,0,0,.9,2.35,5.742,5.742,0,0,0,1.947,1.656,6.057,6.057,0,0,0,2.353.676l.094.006a5.071,5.071,0,0,0,2.454-.436.1.1,0,0,0-.015-.186Z" transform="translate(-336.217 -107.224)"/></g><path class="f" d="M390.524,175.164c.241.028.379-.27.376-.493a7.019,7.019,0,0,0-.811-3.105A8.688,8.688,0,0,0,388.017,169a9.861,9.861,0,0,0-6.2-2.247,9.374,9.374,0,0,0-6.237,2.234,7.855,7.855,0,0,0-2.844,5.676c0,.235.155.539.417.492.217-.039.393-.332.552-.465q.369-.306.761-.582a15.429,15.429,0,0,1,1.63-1,12.229,12.229,0,0,1,6.779-1.5,11.686,11.686,0,0,1,4.292,1.266,15,15,0,0,1,2.279,1.451c.271.208.718.765,1.052.829Z" transform="translate(-349.267 -132.706)"/></g></svg>