<svg xmlns="http://www.w3.org/2000/svg" width="65.105" height="65.105" viewBox="0 0 65.105 65.105"><defs><style>.a{fill:#b0b0b0;}.b{fill:#a9a9a9;}.c{fill:#c1c1c1;}.d{fill:#fff;}.e{fill:#303030;}.f{fill:#2a2a2a;}</style></defs><g transform="translate(0)"><g transform="translate(0 0)"><circle class="a" cx="23.018" cy="23.018" r="23.018" transform="translate(32.553 65.105) rotate(-135)"/><g transform="translate(9.535 12.906)"><path class="b" d="M1259.21,524.432a23.022,23.022,0,0,0,31.44,32.018,23.02,23.02,0,1,1-31.44-32.018Z" transform="translate(-1248.235 -524.432)"/></g><g transform="translate(14.131 11.234)"><path class="c" d="M1278.83,541.986a21.37,21.37,0,0,0-38.312-13.027,21.372,21.372,0,1,1,35.472,23.679A21.275,21.275,0,0,0,1278.83,541.986Z" transform="translate(-1240.519 -518.239)"/></g></g><g transform="translate(14.754 20.888)"><g transform="translate(22.079 1.409)"><ellipse class="d" cx="5.277" cy="5.277" rx="5.277" ry="5.277" transform="translate(1.691 12.109) rotate(-99.217)"/><path class="e" d="M1270.916,563.6a5.259,5.259,0,0,1,6.366-.789,1.307,1.307,0,0,1,.285.682c.1,1.1-1.317,2.134-3.173,2.308s-3.443-.578-3.547-1.678A1.25,1.25,0,0,1,1270.916,563.6Z" transform="translate(-1268.563 -561.304)"/></g><g transform="translate(0 0)"><circle class="d" cx="5.277" cy="5.277" r="5.277" transform="translate(7.463 14.926) rotate(-135)"/><path class="e" d="M1347.46,563.6a5.259,5.259,0,0,1,6.366-.789,1.306,1.306,0,0,1,.285.682c.1,1.1-1.317,2.134-3.173,2.308s-3.443-.578-3.547-1.678A1.26,1.26,0,0,1,1347.46,563.6Z" transform="translate(-1343.698 -559.895)"/></g></g><path class="f" d="M1287.907,609.615a9.27,9.27,0,0,1,4.35-2.315,11.75,11.75,0,0,1,4.964-.091,12.433,12.433,0,0,1,4.558,1.89,10.8,10.8,0,0,1,3.348,3.52.54.54,0,0,1-.707.753l-.5-.249c-1.185-.586-2.3-1.14-3.441-1.584a21.565,21.565,0,0,0-3.869-1.149,19.057,19.057,0,0,0-3.986-.342,24.978,24.978,0,0,0-4.236.482.54.54,0,0,1-.478-.915Z" transform="translate(-1263.921 -571.787)"/></g></svg>