<svg xmlns="http://www.w3.org/2000/svg" width="65.105" height="65.105" viewBox="0 0 65.105 65.105"><defs><style>.a{fill:#b0b0b0;}.b{fill:#a9a9a9;}.c{fill:#c1c1c1;}.d{fill:#2a2a2a;}.e{fill:#303030;}</style></defs><g transform="translate(0)"><g transform="translate(0 0)"><g transform="translate(0)"><circle class="a" cx="23.018" cy="23.018" r="23.018" transform="translate(32.553 65.105) rotate(-135)"/><g transform="translate(9.534 12.906)"><path class="b" d="M117.088,742.414a23.021,23.021,0,0,0,31.439,32.018,23.02,23.02,0,1,1-31.439-32.018Z" transform="translate(-106.113 -742.414)"/></g><g transform="translate(14.131 11.234)"><path class="c" d="M136.709,759.968A21.371,21.371,0,0,0,98.4,746.94a21.373,21.373,0,1,1,35.472,23.679A21.272,21.272,0,0,0,136.709,759.968Z" transform="translate(-98.397 -736.221)"/></g></g><path class="d" d="M158.369,827.458a.76.76,0,0,1,1.236.828,11.538,11.538,0,0,1-21.337.212.759.759,0,0,1,1.226-.838C142.863,830.927,150.014,835.574,158.369,827.458Z" transform="translate(-116.382 -791.423)"/></g><g transform="translate(22.377 25.575)"><g transform="translate(0)"><g transform="translate(16.96)"><path class="e" d="M140.256,792.183c0,1.579.759,2.859,1.7,2.859s1.7-1.28,1.7-2.859-.759-2.859-1.7-2.859S140.256,790.6,140.256,792.183Z" transform="translate(-140.256 -789.324)"/></g><path class="e" d="M203.06,792.183c0,1.579.759,2.859,1.7,2.859s1.7-1.28,1.7-2.859-.759-2.859-1.7-2.859S203.06,790.6,203.06,792.183Z" transform="translate(-203.06 -789.324)"/></g></g></g></svg>