<svg xmlns="http://www.w3.org/2000/svg" width="52.816" height="54.276" viewBox="0 0 52.816 54.276"><defs><style>.a{fill:#b0b0b0;}.b{fill:#a9a9a9;}.c{fill:#c1c1c1;}.d{fill:#2a2a2a;}.e{fill:#303030;}.f{fill:#b4b4b4;}</style></defs><g transform="translate(0 1.46)"><g transform="translate(0 0)"><ellipse class="a" cx="23.018" cy="23.018" rx="23.018" ry="23.018" transform="translate(7.374 52.816) rotate(-99.217)"/><g transform="translate(3.39 6.762)"><path class="b" d="M345.512,968.4a23.022,23.022,0,0,0,31.439,32.018A23.02,23.02,0,1,1,345.512,968.4Z" transform="translate(-334.537 -968.396)"/></g><g transform="translate(7.986 5.089)"><path class="c" d="M365.132,985.95a21.37,21.37,0,0,0-38.311-13.028A21.372,21.372,0,1,1,362.293,996.6,21.275,21.275,0,0,0,365.132,985.95Z" transform="translate(-326.821 -962.203)"/></g></g><path class="d" d="M386.794,1053.44a.76.76,0,0,1,1.236.828,11.538,11.538,0,0,1-21.337.212.759.759,0,0,1,1.226-.837C371.288,1056.908,378.439,1061.556,386.794,1053.44Z" transform="translate(-350.952 -1023.549)"/><g transform="translate(12.524 20.429)"><path class="e" d="M355,1021.685a4.265,4.265,0,0,1,7.887-.078.686.686,0,0,1-1.109.758c-1.277-1.238-3.3-2.232-5.663.067a.686.686,0,0,1-1.115-.747Z" transform="translate(-335.174 -1019.004)"/><path class="e" d="M428.231,1021.685a4.265,4.265,0,0,1,7.887-.079.685.685,0,0,1-1.108.758c-1.277-1.238-3.3-2.232-5.663.067a.686.686,0,0,1-1.115-.747Z" transform="translate(-428.181 -1019.004)"/></g></g><g transform="translate(11.283 0)"><path class="f" d="M348.71,941.861a4.987,4.987,0,0,1,1.627-1.6,13.089,13.089,0,0,1,3.848-1.562,28.321,28.321,0,0,1,7.97-.711.475.475,0,0,1,.039.946,33.743,33.743,0,0,0-7.3,1.618,10.3,10.3,0,0,0-2.911,1.493,4.069,4.069,0,0,0-.468.44,1.986,1.986,0,0,0-.278.405.727.727,0,0,0-.014.636,3.883,3.883,0,0,0,1.946,1.463A17.05,17.05,0,0,0,356.431,946a29.773,29.773,0,0,0,3.585.536c1.155.114,2.359.169,3.681.169a36.454,36.454,0,0,0,3.684-.171,30.254,30.254,0,0,0,3.578-.539,16.965,16.965,0,0,0,3.253-1.014,3.783,3.783,0,0,0,1.929-1.47.728.728,0,0,0-.024-.622,2.751,2.751,0,0,0-.764-.861,10.511,10.511,0,0,0-2.925-1.488,33.855,33.855,0,0,0-7.3-1.607.476.476,0,0,1,.038-.947,28.451,28.451,0,0,1,7.976.707,13.34,13.34,0,0,1,3.848,1.55,5.069,5.069,0,0,1,1.636,1.586,3.175,3.175,0,0,1,.427,1.164,2.786,2.786,0,0,1-.106,1.28,4.314,4.314,0,0,1-1.362,1.933,9.167,9.167,0,0,1-1.823,1.185,18.516,18.516,0,0,1-3.927,1.4,36.674,36.674,0,0,1-16.277.01,18.686,18.686,0,0,1-3.927-1.39,9.426,9.426,0,0,1-1.831-1.181,5.229,5.229,0,0,1-.79-.827,3.5,3.5,0,0,1-.579-1.068A2.933,2.933,0,0,1,348.71,941.861Z" transform="translate(-348.272 -937.951)"/><path class="f" d="M399.71,958.5a5.225,5.225,0,0,1-.79-.827,3.506,3.506,0,0,1-.579-1.068,2.837,2.837,0,0,1,0-1.846c1.413,5.755,13.458,6.939,17.181,7.169-.623.03-1.257.049-1.91.052a34.7,34.7,0,0,1-8.14-.909,18.681,18.681,0,0,1-3.927-1.39A9.419,9.419,0,0,1,399.71,958.5Z" transform="translate(-398.183 -950.218)"/></g></svg>