<svg xmlns="http://www.w3.org/2000/svg" width="65.105" height="65.105" viewBox="0 0 65.105 65.105"><defs><style>.a{fill:#b0b0b0;}.b{fill:#a9a9a9;}.c{fill:#c1c1c1;}.d{fill:#2a2a2a;}.e{fill:#303030;}.f{fill:#cfcfcf;}</style></defs><g transform="translate(0)"><g transform="translate(0 0)"><g transform="translate(0)"><circle class="a" cx="23.018" cy="23.018" r="23.018" transform="translate(32.553 65.105) rotate(-135)"/></g><g transform="translate(9.535 12.907)"><path class="b" d="M1259.21,88.469a23.022,23.022,0,0,0,31.44,32.018,23.02,23.02,0,1,1-31.44-32.018Z" transform="translate(-1248.235 -88.469)"/></g><g transform="translate(14.131 11.234)"><path class="c" d="M1278.831,106.023A21.371,21.371,0,0,0,1240.519,93a21.372,21.372,0,1,1,35.472,23.679A21.273,21.273,0,0,0,1278.831,106.023Z" transform="translate(-1240.519 -82.276)"/></g></g><path class="d" d="M1300.492,169.4a.76.76,0,0,1,1.236.829,11.538,11.538,0,0,1-21.338.212.759.759,0,0,1,1.226-.837C1284.986,172.871,1292.137,177.518,1300.492,169.4Z" transform="translate(-1258.505 -134.477)"/><g transform="translate(18.668 26.573)"><path class="e" d="M1349.82,140.021a4.265,4.265,0,0,1-7.887.078.686.686,0,0,1,1.108-.759c1.277,1.238,3.3,2.233,5.663-.067a.686.686,0,0,1,1.115.747Z" transform="translate(-1341.878 -139.077)"/><path class="e" d="M1276.59,140.021a4.264,4.264,0,0,1-7.886.078.685.685,0,0,1,1.108-.759c1.277,1.238,3.3,2.233,5.663-.067a.686.686,0,0,1,1.115.747Z" transform="translate(-1248.872 -139.077)"/></g><g transform="translate(11.611 31.738)"><ellipse class="f" cx="4.019" cy="4.019" rx="4.019" ry="4.019" transform="translate(33.847)"/><ellipse class="f" cx="4.019" cy="4.019" rx="4.019" ry="4.019" transform="translate(0 0)"/></g></g></svg>