<svg xmlns="http://www.w3.org/2000/svg" xmlns:xlink="http://www.w3.org/1999/xlink" width="26" height="26" viewBox="0 0 26 26">
  <defs>
    <linearGradient id="linear-gradient" x1="0.5" x2="0.5" y2="1" gradientUnits="objectBoundingBox">
      <stop offset="0" stop-color="#f47da5"/>
      <stop offset="1" stop-color="#fcaf7f"/>
    </linearGradient>
  </defs>
  <g id="advisory_ico" transform="translate(-20 -144)">
    <rect id="Rectangle_2901" data-name="Rectangle 2901" width="26" height="26" transform="translate(20 144)" fill="none"/>
    <g id="conversation_1_" data-name="conversation (1)" transform="translate(21.066 143.204)">
      <g id="Group_46312" data-name="Group 46312" transform="translate(13.585 7.066)">
        <g id="Group_46302" data-name="Group 46302" transform="translate(0)">
          <g id="Group_46301" data-name="Group 46301">
            <path id="Path_18246" data-name="Path 18246" d="M249.577,324h-4.509a1.785,1.785,0,0,0-1.661,1.113h-1.382a.359.359,0,0,0-.254.613l1.5,1.5v1.727a1.8,1.8,0,0,0,1.8,1.8h4.509a1.8,1.8,0,0,0,1.8-1.8V325.8A1.8,1.8,0,0,0,249.577,324Zm1.077,4.954a1.078,1.078,0,0,1-1.077,1.077h-4.509a1.078,1.078,0,0,1-1.077-1.077v-1.876a.359.359,0,0,0-.105-.254l-.994-.994h.777a.359.359,0,0,0,.35-.278,1.071,1.071,0,0,1,1.049-.834h4.509a1.078,1.078,0,0,1,1.077,1.077Z" transform="translate(-241.666 -324)" fill="url(#linear-gradient)"/>
          </g>
        </g>
        <g id="Group_46304" data-name="Group 46304" transform="translate(4.751 2.314)">
          <g id="Group_46303" data-name="Group 46303">
            <path id="Path_18247" data-name="Path 18247" d="M376.518,388.568a.359.359,0,0,0-.508,0l-.954.954-.444-.444a.359.359,0,0,0-.508.508l.7.7a.359.359,0,0,0,.508,0l1.208-1.208A.359.359,0,0,0,376.518,388.568Z" transform="translate(-373.999 -388.463)" fill="url(#linear-gradient)"/>
          </g>
        </g>
      </g>
      <g id="Group_46311" data-name="Group 46311" transform="translate(0.933 5.796)">
        <g id="Group_46294" data-name="Group 46294">
          <g id="Group_46293" data-name="Group 46293">
            <path id="Path_18242" data-name="Path 18242" d="M10.118,230.155a.549.549,0,0,0-.123-.02,3.558,3.558,0,0,0,.985-2.46v-2.929a.563.563,0,0,0-.006-.079c0-.053.006-.106.006-.16v-1.853a.557.557,0,0,0-.557-.557H6.689a2.855,2.855,0,0,0-2.852,2.852v2.726a3.558,3.558,0,0,0,.985,2.46.548.548,0,0,0-.123.02A5.177,5.177,0,0,0,0,235.3v2.379a.557.557,0,0,0,.557.557h13.7a.557.557,0,0,0,.557-.557V235.3A5.176,5.176,0,0,0,10.118,230.155Zm-5.167-4.5v-.706a1.74,1.74,0,0,1,1.738-1.738H9.867v1.3a1.185,1.185,0,0,1-1.184,1.184H4.951Zm0,1.149H8.683a2.282,2.282,0,0,0,1.184-.329v1.2a2.458,2.458,0,1,1-4.916,0Zm3.67,4.442-1.212,1.212L6.2,231.246Zm5.083,5.878H1.114v-1.114H3.424a.557.557,0,0,0,0-1.114H1.134a4.063,4.063,0,0,1,3.522-3.617l2.359,2.359a.557.557,0,0,0,.787,0l2.359-2.359A4.061,4.061,0,0,1,13.7,235.3Z" transform="translate(0 -222.097)" fill="url(#linear-gradient)"/>
          </g>
        </g>
        <g id="Group_46310" data-name="Group 46310" transform="translate(5.095 12.8)">
          <g id="Group_46309" data-name="Group 46309">
            <path id="Path_18250" data-name="Path 18250" d="M92.45,452.163a.557.557,0,1,0,.163.394A.562.562,0,0,0,92.45,452.163Z" transform="translate(-91.5 -452)" fill="url(#linear-gradient)"/>
          </g>
        </g>
      </g>
    </g>
  </g>
</svg>
