<svg xmlns="http://www.w3.org/2000/svg" width="58.12" height="32.52" viewBox="0 0 58.12 32.52"><defs><style>.a{fill:#3b3b3b;}</style></defs><g transform="translate(12.679 0)"><g transform="translate(0 0)"><path class="a" d="M39.994,93.2a5.237,5.237,0,0,0-1.755.3l-.75-1.559a6.857,6.857,0,0,1,5.349.137.726.726,0,0,0,.969-.395.776.776,0,0,0-.38-1.007,8.274,8.274,0,0,0-6.6-.108L34.1,84.911a2.227,2.227,0,0,0,.4.036h1.57a.751.751,0,0,0,.736-.765V80.92a.751.751,0,0,0-.736-.765H34.5a2.3,2.3,0,0,0-2.055,1.31l-.778-1.617A2.286,2.286,0,0,0,29.6,78.524H28.217a.765.765,0,0,0,0,1.529H29.6a.827.827,0,0,1,.746.479l1.906,3.96-.358.186a2.394,2.394,0,0,0-1.275,2.143v8.014h-6.33a2.455,2.455,0,0,1-2.4-2.5V89.025h.049a2.4,2.4,0,0,0,0-4.791H15.654a2.256,2.256,0,0,0-1.619.692V73.58A1.553,1.553,0,0,0,12.513,72H1.521A1.553,1.553,0,0,0,0,73.58V85a1.553,1.553,0,0,0,1.521,1.58H3.173a2.08,2.08,0,0,0-.051.483,1.966,1.966,0,0,0,1.92,1.963H9a9.889,9.889,0,0,0-1.279,1.011,9.541,9.541,0,0,0-2.774,4.526,2.186,2.186,0,0,0,.386,1.818,1.988,1.988,0,0,0,1.589.8h.392a5.874,5.874,0,0,0-.247,1.686,5.562,5.562,0,0,0,5.447,5.658,5.528,5.528,0,0,0,5.4-4.893H32.142a.751.751,0,0,0,.736-.765,7.724,7.724,0,0,1,.142-1.479,7.389,7.389,0,0,1,3.152-4.749l.75,1.558a5.719,5.719,0,0,0-2.376,4.67A5.451,5.451,0,1,0,39.994,93.2Zm-24.34-7.442h6.281a.867.867,0,0,1,0,1.733H15.654a.867.867,0,0,1,0-1.733ZM1.472,73.58a.05.05,0,0,1,.049-.051H12.513a.05.05,0,0,1,.049.051v1.682H1.472Zm.049,11.469A.05.05,0,0,1,1.472,85V76.791h11.09V85a.05.05,0,0,1-.049.051ZM5.043,87.5a.459.459,0,0,1-.448-.458.472.472,0,0,1,.129-.334.441.441,0,0,1,.215-.125l8.411,0c0,.016,0,.032,0,.049a2.465,2.465,0,0,0,.157.867Zm1.881,8.153h0a.539.539,0,0,1-.435-.218.62.62,0,0,1-.108-.516,8.175,8.175,0,0,1,7.7-5.89c3.368,0,4.623,3.343,4.623,5.45,0,.571-.3,1.151-.884,1.152Zm6.425,3.214A.835.835,0,1,1,12.513,98,.852.852,0,0,1,13.348,98.862Zm-.834,4.129a4.059,4.059,0,0,1-3.975-4.129,4.27,4.27,0,0,1,.349-1.689l2,0a2.436,2.436,0,0,0-.676,1.693,2.308,2.308,0,1,0,4.613,0,2.435,2.435,0,0,0-.682-1.7l2,0a4.268,4.268,0,0,1,.355,1.7A4.059,4.059,0,0,1,12.513,102.991Zm19.065-5.912a9.248,9.248,0,0,0-.141,1.019H17.91a5.854,5.854,0,0,0-.2-.941h.118a2.48,2.48,0,0,0,2.354-2.681,7.961,7.961,0,0,0-1.454-4.6,6.314,6.314,0,0,0-.743-.851h2.433v3.313a3.958,3.958,0,0,0,3.877,4.027h7.066a.714.714,0,0,0,.435-.149C31.708,96.5,31.636,96.785,31.578,97.079ZM34.5,81.685h.834v1.733H34.5a.867.867,0,0,1,0-1.733Zm-2.4,13.682V86.821a.866.866,0,0,1,.461-.775l.358-.186,2.6,5.4A8.865,8.865,0,0,0,32.093,95.367Zm7.9,7.624a4.132,4.132,0,1,1,3.975-4.129A4.059,4.059,0,0,1,39.994,102.991Z" transform="translate(0 -72)"/><path class="a" d="M386.357,312a2.357,2.357,0,1,0,2.357,2.357A2.36,2.36,0,0,0,386.357,312Zm0,3.21a.853.853,0,1,1,.853-.852A.853.853,0,0,1,386.357,315.21Z" transform="translate(-346.243 -287.556)"/></g></g><g transform="translate(0 12.838)"><rect class="a" width="7.93" height="1.322" rx="0.661" transform="translate(2.643 0)"/><rect class="a" width="1.322" height="1.322" rx="0.661" transform="translate(0 0)"/><rect class="a" width="2.643" height="1.322" rx="0.661" transform="translate(9.252 2.643)"/><rect class="a" width="1.322" height="1.322" rx="0.661" transform="translate(6.609 2.643)"/></g></svg>