<svg xmlns="http://www.w3.org/2000/svg" width="25" height="24" viewBox="0 0 25 24"><defs><style>.a{fill:#ff8e48;}.b,.d{fill:none;}.b{stroke:#c6c6c6;}.c{stroke:none;}</style></defs><g transform="translate(-536 -504)"><g transform="translate(541 508.89)"><path class="a" d="M13.429.957a3.167,3.167,0,0,0-4.482,0L.729,9.172a.411.411,0,0,0-.116.236L0,13.917a.41.41,0,0,0,.116.346.418.418,0,0,0,.291.122.332.332,0,0,0,.055,0l2.717-.367a.414.414,0,1,0-.11-.82l-2.178.294.425-3.145,3.31,3.31a.418.418,0,0,0,.291.122.405.405,0,0,0,.291-.122l8.218-8.215a3.165,3.165,0,0,0,0-4.482ZM9.106,1.967l1.38,1.38-7.5,7.5-1.38-1.38ZM4.924,12.779,3.575,11.43l7.5-7.5L12.423,5.28ZM13,4.69l-3.3-3.3A2.345,2.345,0,0,1,13,4.69Z" transform="translate(0 0)"/></g><g class="b" transform="translate(536 504)"><rect class="c" width="25" height="24" rx="3"/><rect class="d" x="0.5" y="0.5" width="24" height="23" rx="2.5"/></g></g></svg>