<svg xmlns="http://www.w3.org/2000/svg" xmlns:xlink="http://www.w3.org/1999/xlink" viewBox="0 0 26 26">
  <defs>
    <style>
      .cls-1 {
        fill: none;
      }

      .cls-2 {
        fill: url(#linear-gradient);
      }
    </style>
    <linearGradient id="linear-gradient" x1="0.5" x2="0.5" y2="1" gradientUnits="objectBoundingBox">
      <stop offset="0" stop-color="#f47da5"/>
      <stop offset="1" stop-color="#fcaf7f"/>
    </linearGradient>
  </defs>
  <g id="faq_ico" transform="translate(-20 -144)">
    <rect id="Rectangle_2901" data-name="Rectangle 2901" class="cls-1" width="26" height="26" transform="translate(20 144)"/>
    <path id="discuss-issue" class="cls-2" d="M16.622,20.839a1.8,1.8,0,0,1-.829,1.352c-.133.111-.379.314-.378.39a.53.53,0,0,1-.534.535h0a.532.532,0,0,1-.539-.526,1.613,1.613,0,0,1,.763-1.22c.268-.225.444-.384.444-.529a.533.533,0,0,0-1.066,0,.539.539,0,0,1-1.077,0,1.61,1.61,0,0,1,3.221,0Zm-1.731,2.775a.529.529,0,0,0-.527.539v0a.527.527,0,0,0,.527.537.54.54,0,0,0,0-1.079ZM4.033,27.366a.539.539,0,0,0,0,1.077h.045a.539.539,0,0,0,0-1.077Zm1.872,0a.539.539,0,0,0,0,1.077H5.95a.539.539,0,0,0,0-1.077Zm15.82-8.6v6.063a2.589,2.589,0,0,1-2.587,2.6H12.154c-.137,0-.249,0-.343,0s-.21,0-.253,0c-.045.03-.156.131-.262.229l-.141.129-1.976,1.8a.551.551,0,0,1-.918-.4V23.476H2.617a1.543,1.543,0,0,0-1.539,1.531V31.07a1.52,1.52,0,0,0,1.539,1.5h7.8a.541.541,0,0,1,.359.152l1.61,1.485V29.09a.539.539,0,0,1,1.077,0v6.34a.531.531,0,0,1-.317.49.517.517,0,0,1-.213.043.544.544,0,0,1-.363-.147L10.211,33.65H2.617A2.6,2.6,0,0,1,0,31.07V25.007A2.622,2.622,0,0,1,2.617,22.4H8.259V18.763a2.613,2.613,0,0,1,2.626-2.589h8.254A2.579,2.579,0,0,1,21.726,18.763Zm-1.077,0a1.5,1.5,0,0,0-1.509-1.511H10.885a1.534,1.534,0,0,0-1.548,1.511v9.2l1.083-.979c.05-.046.106-.088.147-.126a1.36,1.36,0,0,1,1.266-.515c.088,0,.193,0,.32,0h6.986a1.511,1.511,0,0,0,1.509-1.523V18.763Z" transform="translate(22 130.826)"/>
  </g>
</svg>
