<svg xmlns="http://www.w3.org/2000/svg" width="18" height="17.998" viewBox="0 0 18 17.998"><defs><style>.a{fill:#696969;}</style></defs><g transform="translate(0 -0.028)"><path class="a" d="M16.834,1.193a3.97,3.97,0,0,0-5.619,0l-10.3,10.3a.515.515,0,0,0-.146.3L.005,17.439a.514.514,0,0,0,.146.433.524.524,0,0,0,.364.153.417.417,0,0,0,.069,0l3.406-.46a.519.519,0,1,0-.138-1.028L1.121,16.9l.533-3.943,4.15,4.15a.524.524,0,0,0,.364.153.508.508,0,0,0,.364-.153l10.3-10.3a3.968,3.968,0,0,0,0-5.619ZM11.415,2.459l1.73,1.73-9.4,9.4-1.73-1.73ZM6.172,16.012,4.481,14.321l9.4-9.4,1.691,1.691ZM16.294,5.872,12.155,1.734a2.94,2.94,0,0,1,4.138,4.138Z" transform="translate(0)"/></g></svg>