<svg xmlns="http://www.w3.org/2000/svg" xmlns:xlink="http://www.w3.org/1999/xlink" width="26" height="26" viewBox="0 0 26 26">
  <defs>
    <linearGradient id="linear-gradient" x1="0.5" x2="0.5" y2="1" gradientUnits="objectBoundingBox">
      <stop offset="0" stop-color="#f47da5"/>
      <stop offset="1" stop-color="#fcaf7f"/>
    </linearGradient>
  </defs>
  <g id="pressrelease_ico" transform="translate(-20 -144)">
    <rect id="Rectangle_2901" data-name="Rectangle 2901" width="26" height="26" transform="translate(20 144)" fill="none"/>
    <g id="press" transform="translate(23.095 147.119)">
      <path id="Path_18314" data-name="Path 18314" d="M54.669,54.624a1.008,1.008,0,0,0,.2-.608.677.677,0,0,0-.246-.569,1.14,1.14,0,0,0-.811-.246,3.434,3.434,0,0,0-.69.039v2.8h.367V54.908a.63.63,0,0,0,.285.039A1.268,1.268,0,0,0,54.669,54.624Zm-1.178-1.1a.941.941,0,0,1,.367-.039c.406,0,.69.2.69.569,0,.406-.285.608-.733.608a.708.708,0,0,1-.324-.039Z" transform="translate(-51.029 -51.125)" fill="url(#linear-gradient)"/>
      <path id="Path_18315" data-name="Path 18315" d="M111.792,54.691h.324c.324.039.488.164.569.569a4.033,4.033,0,0,0,.2.69h.367a4.741,4.741,0,0,1-.2-.772.693.693,0,0,0-.406-.569.8.8,0,0,0,.527-.733.662.662,0,0,0-.246-.53,1.072,1.072,0,0,0-.811-.246,3.853,3.853,0,0,0-.69.039V55.9h.367Zm0-1.264a.83.83,0,0,1,.367-.039c.367,0,.651.164.651.53,0,.324-.246.53-.651.53h-.367Z" transform="translate(-107.055 -51.029)" fill="url(#linear-gradient)"/>
      <path id="Path_18316" data-name="Path 18316" d="M170.451,56.723h-1.221V55.705h1.057v-.285h-1.1v-.893h1.178V54.2h-1.544v2.847h1.626Z" transform="translate(-162.217 -52.086)" fill="url(#linear-gradient)"/>
      <path id="Path_18317" data-name="Path 18317" d="M220.558,54.744a1.134,1.134,0,0,1-.651-.2l-.082.367a1.773,1.773,0,0,0,.733.164c.69,0,1.018-.367,1.018-.815s-.246-.651-.733-.854c-.406-.164-.569-.285-.569-.569,0-.2.121-.449.527-.449a1.244,1.244,0,0,1,.527.121l.121-.285a2.394,2.394,0,0,0-.651-.121c-.569,0-.936.324-.936.772,0,.406.324.651.772.815.367.164.527.285.527.569S220.925,54.744,220.558,54.744Z" transform="translate(-211.227 -50.068)" fill="url(#linear-gradient)"/>
      <path id="Path_18318" data-name="Path 18318" d="M273.851,53.4c-.406-.164-.569-.285-.569-.569,0-.2.121-.449.527-.449a1.244,1.244,0,0,1,.526.121l.121-.285a2.4,2.4,0,0,0-.651-.121c-.569,0-.936.324-.936.772,0,.406.324.651.772.815.367.164.527.285.527.569s-.246.488-.608.488a1.134,1.134,0,0,1-.651-.2l-.082.367a1.773,1.773,0,0,0,.733.164c.69,0,1.018-.367,1.018-.815S274.338,53.605,273.851,53.4Z" transform="translate(-262.16 -50.068)" fill="url(#linear-gradient)"/>
      <rect id="Rectangle_4733" data-name="Rectangle 4733" width="6.911" height="0.815" transform="translate(2.502 9.516)" fill="url(#linear-gradient)"/>
      <rect id="Rectangle_4734" data-name="Rectangle 4734" width="8.537" height="0.815" transform="translate(2.502 6.833)" fill="url(#linear-gradient)"/>
      <path id="Path_18319" data-name="Path 18319" d="M19.128,12.605V4.8a.369.369,0,0,0-.121-.285L14.615.121A.369.369,0,0,0,14.331,0H.431A.383.383,0,0,0,.025.406v12.2a.383.383,0,0,0,.406.406H12.217v1.381a1.456,1.456,0,0,0,1.463,1.463h.608V18.3h-.811v.815h2.438V18.3H15.1V15.854h.569a1.45,1.45,0,0,0,1.463-1.424V13.007h1.626a.331.331,0,0,0,.367-.4ZM17.743,4.392H14.775V1.424ZM16.363,14.434a.643.643,0,0,1-.651.651H13.718a.643.643,0,0,1-.651-.651V10a.643.643,0,0,1,.651-.651h.569V12.2H15.1V9.353h.608a.643.643,0,0,1,.651.651v4.431Zm.772-2.235V10a1.456,1.456,0,0,0-1.463-1.463H13.679A1.458,1.458,0,0,0,12.217,10v2.2H.875V.815H13.964V4.8a.383.383,0,0,0,.406.406h3.982V12.2H17.135Z" transform="translate(0 0)" fill="url(#linear-gradient)"/>
    </g>
  </g>
</svg>
