<svg xmlns="http://www.w3.org/2000/svg" viewBox="0 0 11.568 8.898">
  <defs>
    <style>
      .cls-1 {
        fill: #fff;
      }
    </style>
  </defs>
  <g id="process_tick" transform="translate(-1028.495 -324.405)">
    <path id="flaticon1532088771-svg" class="cls-1" d="M.133,7.894a.43.43,0,0,1,0-.623l.623-.623a.43.43,0,0,1,.623,0l.044.044L3.871,9.318a.215.215,0,0,0,.311,0l5.962-6.184h.044a.43.43,0,0,1,.623,0l.623.623a.43.43,0,0,1,0,.623h0L4.316,11.765a.43.43,0,0,1-.623,0L.222,8.028.133,7.894Z" transform="translate(1028.495 321.405)"/>
  </g>
</svg>
