<svg xmlns="http://www.w3.org/2000/svg" xmlns:xlink="http://www.w3.org/1999/xlink" viewBox="0 0 26 26">
  <defs>
    <style>
      .cls-1 {
        fill: none;
      }

      .cls-2 {
        fill: url(#linear-gradient);
      }
    </style>
    <linearGradient id="linear-gradient" x1="1.36" y1="1.093" x2="-0.491" y2="1.548" gradientUnits="objectBoundingBox">
      <stop offset="0" stop-color="#f47da5"/>
      <stop offset="1" stop-color="#fcaf7f"/>
    </linearGradient>
  </defs>
  <g id="usermanagement_ico" transform="translate(-20 -144)">
    <rect id="Rectangle_2901" data-name="Rectangle 2901" class="cls-1" width="26" height="26" transform="translate(20 144)"/>
    <g id="flaticon1530169452-svg" transform="translate(-11.073 147)">
      <g id="Group_42293" data-name="Group 42293" transform="translate(36.073)">
        <path id="Path_17933" data-name="Path 17933" class="cls-2" d="M141.145,10.3h.127A3.654,3.654,0,0,0,144.063,9.1c1.524-1.718,1.271-4.664,1.243-4.945a4.04,4.04,0,0,0-1.92-3.591A4.4,4.4,0,0,0,141.256,0h-.067a4.409,4.409,0,0,0-2.13.542,4.042,4.042,0,0,0-1.944,3.607c-.028.281-.281,3.227,1.243,4.945A3.639,3.639,0,0,0,141.145,10.3Zm-2.974-6.054c0-.012,0-.024,0-.032.131-2.839,2.146-3.144,3.009-3.144h.048c1.069.024,2.887.459,3.009,3.144a.077.077,0,0,0,0,.032c0,.028.281,2.72-.978,4.138a2.6,2.6,0,0,1-2.039.847h-.04a2.587,2.587,0,0,1-2.035-.847C137.9,6.977,138.167,4.272,138.171,4.249Z" transform="translate(-133.082)"/>
        <path id="Path_17934" data-name="Path 17934" class="cls-2" d="M52.336,264.168v-.012c0-.032,0-.063,0-.1-.024-.784-.075-2.617-1.794-3.2l-.04-.012a11.425,11.425,0,0,1-3.286-1.5.534.534,0,0,0-.614.875,12.333,12.333,0,0,0,3.615,1.651c.923.329,1.026,1.315,1.053,2.217a.8.8,0,0,0,0,.1,7.187,7.187,0,0,1-.083,1.223,14.572,14.572,0,0,1-6.981,1.623,14.656,14.656,0,0,1-6.985-1.627,6.8,6.8,0,0,1-.083-1.224c0-.032,0-.063,0-.1.028-.9.131-1.889,1.053-2.217a12.447,12.447,0,0,0,3.615-1.651.534.534,0,0,0-.614-.875,11.3,11.3,0,0,1-3.286,1.5l-.04.012c-1.718.59-1.77,2.423-1.794,3.2a.8.8,0,0,1,0,.1v.012a6.072,6.072,0,0,0,.2,1.794.508.508,0,0,0,.206.249,14.977,14.977,0,0,0,7.729,1.893,15.022,15.022,0,0,0,7.729-1.893.53.53,0,0,0,.206-.249A6.37,6.37,0,0,0,52.336,264.168Z" transform="translate(-36.073 -248.979)"/>
      </g>
    </g>
  </g>
</svg>
