<svg xmlns="http://www.w3.org/2000/svg" width="115.15" height="118.302" viewBox="0 0 115.15 118.302">
  <g id="ac-svg" transform="translate(-8.457)">
    <g id="Group_522" data-name="Group 522" transform="translate(8.458)">
      <path id="Path_1644" data-name="Path 1644" d="M117.473,44.812V67.163H15.09V14.8c0-4.414,3.857-7.991,8.616-7.991h85.15c4.76,0,8.617,3.577,8.617,7.991V44.812ZM113.919,0H18.15A9.734,9.734,0,0,0,8.458,9.776V73.818h115.15V9.774A9.734,9.734,0,0,0,113.919,0Z" transform="translate(-8.458)"/>
      <path id="Path_1645" data-name="Path 1645" d="M177.834,127.519a3.2,3.2,0,0,1-3.2,3.206H98.1a3.2,3.2,0,0,1-3.206-3.206v-2.8a3.2,3.2,0,0,1,3.206-3.206H174.63a3.2,3.2,0,0,1,3.207,3.206v2.8h0Z" transform="translate(-78.787 -98.87)"/>
      <g id="Group_521" data-name="Group 521" transform="translate(16.103 41.871)">
        <path id="Path_1646" data-name="Path 1646" d="M177.834,230.75a3.2,3.2,0,0,1-3.2,3.206H98.1a3.205,3.205,0,0,1-3.206-3.206v-2.806a3.2,3.2,0,0,1,3.206-3.206H174.63a3.206,3.206,0,0,1,3.207,3.206v2.806Z" transform="translate(-94.89 -224.738)"/>
        <path id="Path_1647" data-name="Path 1647" d="M134.486,488.05H130.7V469.063a3.047,3.047,0,0,0-3.2-3.319h-.822a3.335,3.335,0,0,0-3.457,3.624V488.05H119.71s-1.97.134,0,2.225l5.974,6.334h0a.029.029,0,0,1,.005.011l.113.116a1.618,1.618,0,0,0,2.512-.127L134.5,490.4c2.2-2.218-.012-2.352-.012-2.352Z" transform="translate(-114.373 -420.841)"/>
        <path id="Path_1648" data-name="Path 1648" d="M287.673,488.052H284.3V469.466c0-2.982-1.739-3.613-2.838-3.721h-1.485a3.153,3.153,0,0,0-3.154,3.471v18.835h-3.638c-.518.007-2.025.221.156,2.536l5.17,5.483h0l0,.011.427.449c.579.5,1.727,1.058,3.235-.46h.008l5.493-5.512c2.336-2.348-.005-2.507-.005-2.507Z" transform="translate(-239.161 -420.842)"/>
        <path id="Path_1649" data-name="Path 1649" d="M444.157,488.053H440.8V469.114c0-2.745-1.825-3.285-2.924-3.368h-1.306c-1.009.053-3.247.509-3.247,3.624v18.683h-3.488s-2.178.221,0,2.526v0l5.627,5.968h0a.236.236,0,0,1,.018.025l.051.051a1.731,1.731,0,0,0,2.674-.076h.007l5.946-5.972c2.178-2.189,0-2.526,0-2.526Z" transform="translate(-366.641 -420.843)"/>
      </g>
    </g>
  </g>
</svg>
