<svg xmlns="http://www.w3.org/2000/svg" width="121.055" height="118.303" viewBox="0 0 121.055 118.303">
  <g id="carparking-svg" transform="translate(0 -7.23)">
    <g id="Group_518" data-name="Group 518" transform="translate(0 7.23)">
      <path id="Path_1631" data-name="Path 1631" d="M420.334,384.914a4.375,4.375,0,1,1,4.375-4.377,4.377,4.377,0,0,1-4.375,4.377Zm0-14.28a9.909,9.909,0,1,0,9.909,9.909,9.911,9.911,0,0,0-9.909-9.909Z" transform="translate(-332.312 -301.471)"/>
      <path id="Path_1632" data-name="Path 1632" d="M71.147,384.914a4.375,4.375,0,1,1,4.374-4.377,4.376,4.376,0,0,1-4.374,4.377Zm0-14.28a9.909,9.909,0,1,0,9.908,9.909,9.908,9.908,0,0,0-9.908-9.909Z" transform="translate(-49.586 -301.471)"/>
      <path id="Path_1633" data-name="Path 1633" d="M396.661,49.043a4.535,4.535,0,0,1-4.668,4.391H358.324a4.536,4.536,0,0,1-4.668-4.391V17.382A4.536,4.536,0,0,1,358.324,13H392a4.536,4.536,0,0,1,4.668,4.387V49.043Zm.085-41.813H353.8a5.794,5.794,0,0,0-5.952,5.619V53.4a5.8,5.8,0,0,0,5.952,5.621h42.949A5.8,5.8,0,0,0,402.7,53.4V12.847a5.794,5.794,0,0,0-5.952-5.617Z" transform="translate(-281.643 -7.23)"/>
      <path id="Path_1634" data-name="Path 1634" d="M447.422,82.445a10.025,10.025,0,0,0,2.175.17c3.465,0,5.6-1.753,5.6-4.7,0-2.651-1.84-4.234-5.091-4.234a11.032,11.032,0,0,0-2.691.257l0,8.508Zm-6.455-13.084a53.152,53.152,0,0,1,8.806-.6c4.018,0,6.885.769,8.808,2.308a8.422,8.422,0,0,1,3.076,6.673,9.22,9.22,0,0,1-2.648,6.84c-2.226,2.092-5.515,3.034-9.365,3.034a16.876,16.876,0,0,1-2.221-.125v10.3h-6.452V69.361Z" transform="translate(-357.043 -57.051)"/>
      <path id="Path_1635" data-name="Path 1635" d="M103.672,170.884a4.911,4.911,0,0,1-5.1,4.729H11.329a4.912,4.912,0,0,1-5.1-4.729V149.158a4.932,4.932,0,0,1,5.1-4.729H98.571a4.931,4.931,0,0,1,5.1,4.729v21.728h0v0Zm.026-32.565H11.474l19.135-33.057s.692-1.355,3.92-1.355h19.8s4.7.316,4.528-2.94a2.909,2.909,0,0,0-3.175-2.91H29.341s-1.241.057-2.595,2.391c-1.209,2.079-18.127,31.386-21.9,37.959A6.312,6.312,0,0,0,0,144.833v30c0,3.631,2.566,6.513,5.735,6.513h5.737v14.386c0,1.782,1.154,3.222,2.594,3.222h9.251c1.409,0,2.592-1.44,2.592-3.222V181.348h57.76v14.493c0,1.791,1.151,3.231,2.565,3.231H95.37c1.41,0,2.565-1.44,2.565-3.231V181.348H103.7c3.172,0,5.737-2.882,5.737-6.513v-30c0-3.605-2.565-6.514-5.738-6.514Z" transform="translate(0 -80.771)"/>
    </g>
  </g>
</svg>
