<svg xmlns="http://www.w3.org/2000/svg" width="109.652" height="118.302" viewBox="0 0 109.652 118.302">
  <g id="coffee-svg" transform="translate(-23.262)">
    <g id="Group_520" data-name="Group 520" transform="translate(23.262)">
      <path id="Path_1643" data-name="Path 1643" d="M119.752,112.776H32.691c-4.194,0-4.792-3.377-4.853-4.867v-4.267a2.885,2.885,0,0,1,2.886-2.887H92.158c10.736,0,12.226-9.04,12.374-12.967-.011-.166-.022-.273-.022-.273V36.97s.022-.131.038-.355c-.114-4.088-1.468-13.291-11.443-13.291H33.728c-4.39,0-4.757-3.505-4.779-4.421V10.564c0-4.643,4.6-4.553,4.6-4.553H121.6s5.063-.044,5.063,5.861v93.212h.014c.036,1.251-.087,7.691-6.928,7.691ZM41.572,67.988a3.56,3.56,0,0,1,3.556-3.56H70.586a3.561,3.561,0,0,1,3.556,3.56V76.2c-.027,1.681-.05,3.768-.033,6.093v1.056c-.027.326-.048.7-.107,1.1a24.362,24.362,0,0,1-3.215,9.568c0,.011-.011.011-.011.025a3.687,3.687,0,0,1-.654,1.027H45.565a3.731,3.731,0,0,1-.74-1.24,24.573,24.573,0,0,1-3.083-9.156v-.011a19.04,19.04,0,0,1-.168-2.43l0-14.247Zm36.747,8.476c.005-1.269.024-2.352.039-3.128.029-.81.039-1.287.039-1.287a3.836,3.836,0,0,1,.732-1.595,3.811,3.811,0,0,1,6.805,2.35,1.428,1.428,0,0,1-.011.217s0,.038,0,.116-.02.147-.031.217a1.019,1.019,0,0,0-.011.109c0,.025-.016.056-.02.09a15.29,15.29,0,0,1-2.777,5.516c-.112.148-.221.322-.344.477a2.536,2.536,0,0,1-4.427-1.683v-1.4h.008v0ZM127.146,0H29.038a5.788,5.788,0,0,0-5.771,5.771V17.463a.45.45,0,0,1-.005.068c.192,3.552,1.461,11.564,9.112,11.564H47.913v9.6a3.544,3.544,0,0,0,3.547,3.549H62.138A3.555,3.555,0,0,0,65.717,38.7v-9.6H89.634s9.12-.54,9.12,10.19V86.958c0,6.711-5,7.93-7.626,8.114H75.239a31.948,31.948,0,0,0,3.029-8.919A4.778,4.778,0,0,0,83.438,84.8c.224-.3.445-.629.656-.918,3.938-5.554,5.037-9.033,5.348-10.609a1.093,1.093,0,0,0,.025-.17c.022-.072.022-.136.04-.212.011-.139.022-.276.036-.414a1.618,1.618,0,0,0,.025-.228c.013-.141.013-.277.013-.418A7.317,7.317,0,0,0,78.7,65.443v-2.26a4.593,4.593,0,0,0-4.59-4.6H41.228a4.6,4.6,0,0,0-4.593,4.6V81.588a25.127,25.127,0,0,0,.214,3.139v.015A32.073,32.073,0,0,0,40.1,95.072H34.043a17.051,17.051,0,0,0-6.312.94,7.42,7.42,0,0,0-4.164,5.258,7.293,7.293,0,0,0-.168.893c-.035.215-.046.45-.065.678s-.065.438-.065.691v5.919s.18,8.85,8.7,8.85h91.073c9.181,0,9.837-8.8,9.872-10.754V5.771A5.786,5.786,0,0,0,127.146,0Z" transform="translate(-23.262)"/>
    </g>
  </g>
</svg>
