<svg xmlns="http://www.w3.org/2000/svg" width="161.32" height="118.302" viewBox="0 0 161.32 118.302">
  <g id="gym-svg" transform="translate(0 -64)">
    <g id="Group_523" data-name="Group 523" transform="translate(0 64)">
      <path id="Path_1650" data-name="Path 1650" d="M158.632,90.887h-8.066V86.854a9.41,9.41,0,0,0-9.41-9.41,9.311,9.311,0,0,0-4.033.944V74.755a10.755,10.755,0,1,0-21.509,0V90.887H104.858V88.2a8.031,8.031,0,0,0-13.443-5.969,7.943,7.943,0,0,0-10.755,0,7.943,7.943,0,0,0-10.755,0A8.031,8.031,0,0,0,56.462,88.2v2.689H45.707V74.755a10.755,10.755,0,1,0-21.509,0v3.632a9.311,9.311,0,0,0-4.033-.944,9.41,9.41,0,0,0-9.41,9.41v4.033H2.689A2.689,2.689,0,0,0,0,93.575v16.132A2.689,2.689,0,0,0,2.689,112.4h8.066v4.033a9.41,9.41,0,0,0,9.41,9.41A9.311,9.311,0,0,0,24.2,124.9v3.632a10.755,10.755,0,1,0,21.509,0V112.4h5.377v8.988a13.358,13.358,0,0,0,3.939,9.5l6.816,6.818V182.3h5.377V136.594a2.688,2.688,0,0,0-.788-1.9l-7.6-7.606a8.111,8.111,0,0,1-2.363-5.7V104.33H72.21a3.227,3.227,0,0,1,2.6,1.261c.019.027.04.054.059.083a2.448,2.448,0,0,1,.269.589,2.619,2.619,0,0,1,.1.508,2.294,2.294,0,0,1,0,.508,2.188,2.188,0,0,1-.035.269,2.813,2.813,0,0,1-.309.807,2.656,2.656,0,0,1-2.3,1.352H64.528A2.689,2.689,0,0,0,61.84,112.4v5.377a2.689,2.689,0,0,0,1.839,2.552l5.915,1.976c4.8,1.594,8.378,8.862,8.378,14.293h5.377c0-7.4-4.6-16.917-12.043-19.4l-4.089-1.363v-.75h5.377a8.02,8.02,0,0,0,5.915-2.689h23.66v9.859a8.113,8.113,0,0,1-1.613,4.84l-5.915,7.886a2.688,2.688,0,0,0-.538,1.613V182.3h5.377V137.49l5.377-7.168a13.519,13.519,0,0,0,2.689-8.066V112.4h8.066v16.132a10.755,10.755,0,1,0,21.509,0V124.9a9.311,9.311,0,0,0,4.033.944,9.41,9.41,0,0,0,9.41-9.41V112.4h8.066a2.689,2.689,0,0,0,2.689-2.689V93.575A2.689,2.689,0,0,0,158.632,90.887ZM10.755,107.019H5.377V96.264h5.377Zm13.443,9.41a4.033,4.033,0,0,1-8.066,0V86.854a4.033,4.033,0,1,1,8.066,0Zm16.132,12.1a5.377,5.377,0,0,1-10.755,0V74.755a5.377,5.377,0,1,1,10.755,0ZM53.774,98.953a2.689,2.689,0,0,0-2.689,2.689v5.377H45.707V96.264H56.462a8,8,0,0,0,.153,1.514c.03.159.081.3.118.457.062.239.108.487.188.718Zm13.443-2.689a2.689,2.689,0,0,1-5.377,0V88.2a2.689,2.689,0,0,1,5.377,0Zm10.755,0a2.689,2.689,0,0,1-5.377,0V88.2a2.689,2.689,0,0,1,5.377,0ZM94.1,88.2a2.689,2.689,0,0,1,5.377,0v8.066a2.689,2.689,0,1,1-5.377,0Zm-10.755,0a2.689,2.689,0,0,1,5.377,0v8.066a2.689,2.689,0,1,1-5.377,0Zm32.264,18.821H80.66v-.075a8.015,8.015,0,0,0-.167-1.592c-.016-.073-.051-.14-.067-.215-.048-.2-.118-.379-.18-.57a7.8,7.8,0,0,0-.411-1.006c-.078-.161-.116-.344-.2-.5.031-.021.06-.043.089-.067.124-.081.231-.177.35-.269.2-.151.414-.29.6-.46.156.14.336.25.5.376s.331.269.511.382a8.2,8.2,0,0,0,.785.428c.183.089.355.194.538.269a7.7,7.7,0,0,0,.963.3c.169.046.328.11.5.145a7.827,7.827,0,0,0,3.135,0c.175-.035.333-.1.5-.145a7.7,7.7,0,0,0,.963-.3c.191-.078.363-.183.538-.269a8.247,8.247,0,0,0,.788-.428c.177-.118.339-.253.508-.382s.347-.237.5-.376c.156.14.336.25.5.376s.331.269.511.382a8.2,8.2,0,0,0,.785.428c.183.089.355.194.538.269a7.7,7.7,0,0,0,.963.3c.169.046.328.11.5.145a8.045,8.045,0,0,0,9.647-7.9h10.755v10.755Zm16.132,21.509a5.377,5.377,0,1,1-10.755,0V74.755a5.377,5.377,0,1,1,10.755,0Zm13.443-12.1a4.033,4.033,0,1,1-8.066,0V86.854a4.033,4.033,0,1,1,8.066,0Zm10.755-9.41h-5.377V96.264h5.377Z" transform="translate(0 -64)"/>
    </g>
  </g>
</svg>
