<svg id="lift-svg" xmlns="http://www.w3.org/2000/svg" width="115.234" height="118.302" viewBox="0 0 115.234 118.302">
  <path id="Path_1639" data-name="Path 1639" d="M422.776,280.906a2.311,2.311,0,0,1-2.047-1.24l-7.61-14.541a2.31,2.31,0,0,1,2.047-3.382h15.22a2.31,2.31,0,0,1,2.047,3.382l-7.61,14.541A2.311,2.311,0,0,1,422.776,280.906Zm-3.793-14.542,3.793,7.248,3.794-7.248Zm0,0" transform="translate(-317.462 -201.265)"/>
  <path id="Path_1640" data-name="Path 1640" d="M430.387,186.484h-15.22a2.31,2.31,0,0,1-2.047-3.382l7.61-14.541a2.31,2.31,0,0,1,4.095,0l7.61,14.541a2.31,2.31,0,0,1-2.047,3.382Zm-11.4-4.621h7.586l-3.794-7.248Zm0,0" transform="translate(-317.462 -128.66)"/>
  <path id="Path_1641" data-name="Path 1641" d="M89.25,48.137a2.31,2.31,0,0,0,2.311-2.311V7.379A7.388,7.388,0,0,0,84.181,0H7.379A7.388,7.388,0,0,0,0,7.379V115.991A2.31,2.31,0,0,0,2.311,118.3H89.25a2.31,2.31,0,0,0,2.311-2.311v-44.2a2.311,2.311,0,0,0-4.621,0v41.893H80.007V27.728A2.31,2.31,0,0,0,77.7,25.417H13.863a2.31,2.31,0,0,0-2.311,2.311v85.953H4.621V7.379A2.761,2.761,0,0,1,7.379,4.621H25.1V15.827a2.31,2.31,0,0,0,2.311,2.311H64.154a2.31,2.31,0,0,0,2.311-2.311V4.621H84.181a2.761,2.761,0,0,1,2.758,2.758V45.827A2.31,2.31,0,0,0,89.25,48.137Zm-73.076-18.1h27.3V91.886a2.311,2.311,0,0,0,4.621,0V30.038h27.3v83.642H16.174ZM61.843,13.516H29.717V4.621H61.843Zm0,0"/>
  <path id="Path_1642" data-name="Path 1642" d="M378.572,246.954a2.3,2.3,0,0,1-.45-.043,2.394,2.394,0,0,1-.432-.132,2.282,2.282,0,0,1-.4-.213,2.368,2.368,0,0,1-.352-.289,2.239,2.239,0,0,1-.286-.351,2.363,2.363,0,0,1-.213-.4,2.316,2.316,0,0,1-.131-.432,2.264,2.264,0,0,1-.047-.453,2.231,2.231,0,0,1,.047-.45,2.316,2.316,0,0,1,.344-.832,2.282,2.282,0,0,1,.286-.351,2.245,2.245,0,0,1,.352-.286,2.282,2.282,0,0,1,.4-.213,2.394,2.394,0,0,1,.432-.132,2.306,2.306,0,0,1,.9,0,2.508,2.508,0,0,1,.432.132,2.369,2.369,0,0,1,.4.213,2.242,2.242,0,0,1,.351.286,2.356,2.356,0,0,1,.289.351,2.342,2.342,0,0,1,.345.832,2.3,2.3,0,0,1,.043.45,2.33,2.33,0,0,1-.043.453,2.4,2.4,0,0,1-.132.432,2.312,2.312,0,0,1-.5.748,2.313,2.313,0,0,1-.748.5,2.508,2.508,0,0,1-.432.132A2.328,2.328,0,0,1,378.572,246.954Zm0,0" transform="translate(-289.323 -186.341)"/>
</svg>
