<svg xmlns="http://www.w3.org/2000/svg" width="131.148" height="118.301" viewBox="0 0 131.148 118.301">
  <g id="pool-svg" transform="translate(0 -31.173)">
    <g id="Group_519" data-name="Group 519" transform="translate(0 31.173)">
      <path id="Path_1636" data-name="Path 1636" d="M192.544,63.482h27.344V70.43H192.544V63.482Zm0,30.592V91.551h7.182a38.266,38.266,0,0,0,7.544-5.3c.812-.722,1.549-1.308,2.3-1.925H192.544V77.657h27.344v.065a30.82,30.82,0,0,1,5.8-1.764V45.1c0-.1.036-.21.036-.312v-.417c.036-9.59,5.735-8.059,5.735-8.059,3.362.347,4.132,5.037,4.3,7.713.176,1.7,1.359,1.841,1.359,1.841h2.6c1,0,1.22-.765,1.22-1.357-.034-.209-.034-.416-.072-.658v-.037a40.163,40.163,0,0,0-1.21-6.634,9.42,9.42,0,0,0-1.291-2.259c-.1-.139-.206-.277-.313-.417a3.809,3.809,0,0,0-.381-.382,8.272,8.272,0,0,0-.833-.73,9.973,9.973,0,0,0-.9-.658.033.033,0,0,0-.034-.033,10.7,10.7,0,0,0-1.842-.87,12.613,12.613,0,0,0-2.393-.593c-.387-.033-.729-.068-1.118-.068h-.233A10.449,10.449,0,0,0,219.9,41.6V56.257H192.544V45.1c0-.1.037-.21.037-.312v-.417c0-9.59,5.733-8.059,5.733-8.059,3.336.347,4.134,5.037,4.309,7.713.174,1.7,1.355,1.841,1.355,1.841h2.6c1.008,0,1.217-.765,1.217-1.357-.035-.209-.035-.416-.068-.658v-.037a40.669,40.669,0,0,0-1.218-6.634,9.268,9.268,0,0,0-1.29-2.259c-.1-.139-.206-.277-.308-.417a3.754,3.754,0,0,0-.386-.382,7.844,7.844,0,0,0-.831-.73,9.153,9.153,0,0,0-.9-.658c0-.033-.039-.033-.039-.033a11.009,11.009,0,0,0-1.838-.87,12.544,12.544,0,0,0-2.4-.593c-.384-.033-.726-.068-1.112-.068h-.24A10.45,10.45,0,0,0,186.749,41.6V94.569a30.092,30.092,0,0,0,5.8-.5Z" transform="translate(-148.268 -31.173)"/>
      <path id="Path_1637" data-name="Path 1637" d="M139.09,274.462s13.466-3.473,27.364,6.189c4.011,3.147,7.811,5.539,5.1,8.794-1.523,1.412-2.825,2.723-7.6-2.17-4.665-3.152-12.043-7.863-24.863-5.975-4.989.98-8.684,2.282-15.736,8.9s-17.588,11.3-28.77,10.316S77.538,295.3,71.35,289.981c-1.3-1.731-1.3-3.575-.542-4.665s3.691-2.172,5.32-.541,9.339,8.144,16.937,8.576,15.2.866,25.4-8.144,15.309-9.66,20.623-10.746Z" transform="translate(-55.808 -223.848)"/>
      <path id="Path_1638" data-name="Path 1638" d="M122.371,201.509a6.018,6.018,0,0,1-6.015,6.022H14.788a6.018,6.018,0,0,1-6.02-6.022v-84.82H0v93.733a6.949,6.949,0,0,0,6.948,6.947H124.2a6.95,6.95,0,0,0,6.945-6.947V116.689h-8.772v84.82Z" transform="translate(0 -99.068)"/>
    </g>
  </g>
</svg>
