<svg xmlns="http://www.w3.org/2000/svg" width="116.332" height="118.302" viewBox="0 0 116.332 118.302">
  <g id="tabletennis-svg" transform="translate(-0.004 -0.001)">
    <path id="Path_1651" data-name="Path 1651" d="M96.5,78.187A1.971,1.971,0,0,0,94.648,76.9H60.118c2.731-13.686,10.989-23.66,20.728-23.66a1.972,1.972,0,0,0,0-3.943c-11.794,0-21.73,11.721-24.7,27.6H41.413v-15.4c.771-.255,1.522-.541,2.263-.848.115-.047.226-.1.339-.15q.986-.423,1.934-.907c.062-.029.12-.061.18-.092A31.266,31.266,0,0,0,61.412,41.662c.126-.369.234-.745.347-1.12.089-.3.177-.592.256-.893.139-.513.259-1.031.371-1.552.018-.081.054-.264.058-.278A31.532,31.532,0,1,0,9.37,53.983l.126.122a31.187,31.187,0,0,0,4.249,3.47c.178.12.351.248.53.365.361.235.732.453,1.1.673.322.2.643.378.972.557s.664.357,1,.525q.624.313,1.268.591c.282.124.56.256.848.374.729.3,1.47.592,2.23.833V78.516L8.017,115.648A1.971,1.971,0,0,0,9.867,118.3H108.45a1.971,1.971,0,0,0,1.849-2.654ZM38.915,58.127a1.972,1.972,0,0,0-1.445,1.9V86.756a5.915,5.915,0,1,1-11.83,0V60.028a1.972,1.972,0,0,0-1.445-1.9,26.49,26.49,0,0,1-3.125-1.089l-.377-.158A27.889,27.889,0,0,1,5.135,39.436H25.64v5.915a1.972,1.972,0,0,0,3.943,0V39.436h3.943v5.915a1.972,1.972,0,0,0,3.943,0V39.436H57.975c-.015.051-.032.1-.045.151A27.894,27.894,0,0,1,42.478,56.85c-.176.076-.353.149-.53.222A26.771,26.771,0,0,1,38.915,58.127ZM3.987,30.139A27.8,27.8,0,0,1,30.224,3.977c.45-.021.9-.031,1.343-.031A27.469,27.469,0,0,1,58.854,35.493H4.247A27.975,27.975,0,0,1,3.987,30.139Zm8.709,84.22,9.31-25.272a9.843,9.843,0,0,0,19.408-2.332V80.841H55.566a54.2,54.2,0,0,0-.35,5.915,1.972,1.972,0,1,0,3.943,0,51.243,51.243,0,0,1,.359-5.915h33.75l12.347,33.518Zm0,0" transform="translate(0 0)"/>
    <path id="Path_1652" data-name="Path 1652" d="M373.825,120.008a13.8,13.8,0,1,0,13.8,13.8A13.8,13.8,0,0,0,373.825,120.008Zm0,23.66a9.858,9.858,0,1,1,9.858-9.858A9.858,9.858,0,0,1,373.825,143.668Zm0,0" transform="translate(-271.29 -90.43)"/>
    <path id="Path_1653" data-name="Path 1653" d="M426,168.008a1.972,1.972,0,0,0-1.972,1.972v1.972a1.972,1.972,0,1,0,3.943,0v-1.972A1.972,1.972,0,0,0,426,168.008Zm0,0" transform="translate(-319.517 -126.6)"/>
    <path id="Path_1654" data-name="Path 1654" d="M353.307,344.137a1.97,1.97,0,0,0-1.182,2.525l7.887,21.688a1.972,1.972,0,0,0,3.7-1.349l-7.887-21.688A1.972,1.972,0,0,0,353.307,344.137Zm0,0" transform="translate(-265.249 -259.233)"/>
    <path id="Path_1655" data-name="Path 1655" d="M42,61.712a1.972,1.972,0,0,0,1.972-1.972c0-.574.16-14.052,14.046-15.79a1.972,1.972,0,0,0-.489-3.912c-17.3,2.153-17.5,19.525-17.5,19.7A1.972,1.972,0,0,0,42,61.712Zm0,0" transform="translate(-30.157 -30.163)"/>
    <path id="Path_1656" data-name="Path 1656" d="M288.023,233.866a1.972,1.972,0,1,0,3.943,0c0-2.792,5.9-5.915,13.8-5.915a1.972,1.972,0,0,0,0-3.943C295.652,224.008,288.023,228.245,288.023,233.866Zm0,0" transform="translate(-217.035 -168.798)"/>
  </g>
</svg>
