<svg xmlns="http://www.w3.org/2000/svg" viewBox="0 0 24 24">
  <defs>
    <style>
      .cls-1 {
        fill: none;
      }

      .cls-2 {
        fill: #959595;
      }
    </style>
  </defs>
  <g id="colorpicker_ico" transform="translate(-1177 -309)">
    <rect id="Rectangle_3338" data-name="Rectangle 3338" class="cls-1" width="24" height="24" transform="translate(1177 309)"/>
    <path id="if_miscellaneous-43_809460" class="cls-2" d="M17.325.675a2.173,2.173,0,0,0-3.148,0l-1.8,1.8L10.8.9,7.656,4.047,9.23,5.622,2.409,12.442.76,15.141c-.375.824-.974,2.324-.6,2.7.45.45,2.024-.225,2.7-.6l2.623-1.574L12.3,8.844l1.574,1.574L17.025,7.27,15.451,5.7l1.8-1.8A2.2,2.2,0,0,0,17.325.675ZM10.8,9.369,9.754,8.32l-.525.525,1.049,1.049L9.23,10.943,8.18,9.894l-.525.525,1.049,1.049L7.656,12.517,6.606,11.468l-.6.525,1.049,1.049L5.932,14.166,4.882,13.117l-.525.525,1.049,1.049-.45.45L2.334,16.715c-.525.225-1.349.675-1.574.525-.225-.225.3-1.049.525-1.574l1.574-2.623,6.9-6.9,2.1,2.1Zm5.472-6.6L13.427,5.622,15,7.2,13.952,8.245l-4.2-4.2L10.8,3l1.574,1.574,2.848-2.848a.725.725,0,0,1,1.049,0A.725.725,0,0,1,16.275,2.773Z" transform="translate(1179.959 312)"/>
  </g>
</svg>
