<svg xmlns="http://www.w3.org/2000/svg" viewBox="-22904.705 12467.297 23.785 23.786"><defs><style>.a{opacity:0.65;}</style></defs><g class="a" transform="translate(-22904.707 12467.297)"><path d="M2.974,3.717V.743a.743.743,0,1,1,1.487,0V3.717a.743.743,0,0,1-1.487,0Zm12.637.743a.743.743,0,0,0,.743-.743V.743a.743.743,0,0,0-1.487,0V3.717A.743.743,0,0,0,15.611,4.46Zm8.176,13.38a5.947,5.947,0,1,1-5.947-5.946A5.947,5.947,0,0,1,23.787,17.839Zm-1.486,0a4.46,4.46,0,1,0-4.46,4.46A4.465,4.465,0,0,0,22.3,17.839ZM5.948,8.92H2.974v2.973H5.948ZM2.974,16.353H5.948V13.38H2.974Zm4.46-4.46h2.973V8.92H7.434Zm0,4.46h2.973V13.38H7.434ZM1.488,17.692V7.433H17.841v2.973h1.487v-5.8a1.622,1.622,0,0,0-1.61-1.635H17.1v.743a1.487,1.487,0,1,1-2.973,0V2.973H5.2v.743a1.487,1.487,0,1,1-2.973,0V2.973H1.612A1.623,1.623,0,0,0,0,4.608V17.692a1.624,1.624,0,0,0,1.611,1.635h8.8V17.84h-8.8A.141.141,0,0,1,1.488,17.692Zm13.38-5.8V8.92H11.894v2.973Zm5.2,5.946h-2.23v-2.23a.743.743,0,0,0-1.486,0v2.974a.743.743,0,0,0,.743.743h2.973a.743.743,0,0,0,0-1.487Z"/></g></svg>