<svg xmlns="http://www.w3.org/2000/svg" width="21.605" height="16.441" viewBox="0 0 21.605 16.441">
  <g id="envelope" transform="translate(0 -57.75)">
    <g id="Group_50053" data-name="Group 50053" transform="translate(0 57.75)">
      <path id="Path_44708" data-name="Path 44708" d="M18.968,57.75H2.642A2.644,2.644,0,0,0,0,60.392V71.55a2.644,2.644,0,0,0,2.642,2.642H18.964a2.644,2.644,0,0,0,2.642-2.642V60.4A2.641,2.641,0,0,0,18.968,57.75ZM20.4,71.55a1.437,1.437,0,0,1-1.435,1.435H2.642A1.437,1.437,0,0,1,1.207,71.55V60.4a1.437,1.437,0,0,1,1.435-1.435H18.964A1.437,1.437,0,0,1,20.4,60.4V71.55Z" transform="translate(0 -57.75)" fill="#7c7b7b"/>
      <path id="Path_44709" data-name="Path 44709" d="M66.886,114.7l5.284-4.739a.6.6,0,1,0-.809-.9l-7.287,6.54-1.422-1.27s-.009-.009-.009-.013a.894.894,0,0,0-.1-.085l-5.785-5.177a.6.6,0,0,0-.8.9l5.347,4.779-5.324,4.985a.606.606,0,0,0-.027.854.617.617,0,0,0,.443.192.6.6,0,0,0,.411-.161l5.4-5.056,1.466,1.31a.6.6,0,0,0,.8,0l1.507-1.35,5.373,5.105a.605.605,0,0,0,.854-.022.606.606,0,0,0-.022-.854Z" transform="translate(-53.26 -106.616)" fill="#7c7b7b"/>
    </g>
  </g>
</svg>
