<svg xmlns="http://www.w3.org/2000/svg" viewBox="0 0 22 19.334">
  <g id="left" transform="translate(0 -86.332)">
    <g id="Group_46428" data-name="Group 46428" transform="translate(0.001 86.333)">
      <path id="Path_18251" data-name="Path 18251" d="M21.4,93.791H3.876l6.219-6.219a.6.6,0,0,0,.177-.427V85.937A.6.6,0,0,0,9.24,85.51L.178,94.572a.6.6,0,0,0,0,.854l9.063,9.063a.6.6,0,0,0,1.031-.427v-1.208a.6.6,0,0,0-.177-.427L3.876,96.208H21.4a.6.6,0,0,0,.6-.6V94.4A.6.6,0,0,0,21.4,93.791Z" transform="translate(-0.001 -85.333)"/>
    </g>
  </g>
</svg>
