<svg xmlns="http://www.w3.org/2000/svg" viewBox="-21132.979 7751 16.654 17.944"><defs><style>.a{fill:#fff;}</style></defs><g transform="translate(-21150.577 7751)"><g transform="translate(17.6 0)"><g transform="translate(0 0)"><path class="a" d="M132.372,133.524l.007-.007a.279.279,0,0,0,.029-.04s0-.007.007-.011.018-.029.026-.044a.013.013,0,0,1,0-.007c.007-.015.015-.029.022-.048s0,0,0-.007.011-.033.018-.051,0-.007,0-.007a.256.256,0,0,0,.011-.051.033.033,0,0,1,0-.018c0-.015,0-.029.007-.044a.529.529,0,0,0,0-.125.184.184,0,0,0-.007-.044.033.033,0,0,0,0-.018c0-.018-.007-.033-.011-.051s0-.007,0-.007a.286.286,0,0,0-.018-.051s0,0,0-.007-.015-.033-.022-.048a.013.013,0,0,0,0-.007.273.273,0,0,0-.026-.044s0-.007-.007-.011a.382.382,0,0,0-.029-.04l-.007-.007a.52.52,0,0,0-.044-.048l-3.622-3.619a.629.629,0,1,0-.89.89l2.549,2.549H120.23a.628.628,0,1,0,0,1.256h10.138l-2.531,2.531a.628.628,0,1,0,.886.89l3.6-3.6C132.343,133.553,132.357,133.539,132.372,133.524Z" transform="translate(-115.864 -124.155)"/><path class="a" d="M21.01,1.256H25.7A.628.628,0,1,0,25.7,0H21.01A3.416,3.416,0,0,0,17.6,3.41V14.534a3.416,3.416,0,0,0,3.41,3.41h4.611a.628.628,0,1,0,0-1.256H21.01a2.157,2.157,0,0,1-2.154-2.154V3.41A2.157,2.157,0,0,1,21.01,1.256Z" transform="translate(-17.6 0)"/></g></g></g></svg>