<svg xmlns="http://www.w3.org/2000/svg" xmlns:xlink="http://www.w3.org/1999/xlink" viewBox="0 0 312.175 230.5">
  <defs>
    <style>
      .cls-1 {
        fill: #fff;
        stroke: #707070;
      }

      .cls-2 {
        clip-path: url(#clip-path);
      }

      .cls-3 {
        fill: #f4f4f4;
      }

      .cls-4 {
        fill: #e2e2e2;
      }

      .cls-5 {
        fill: #d1d1d1;
      }

      .cls-6 {
        fill: #e6e6e6;
      }
    </style>
    <clipPath id="clip-path">
      <rect id="Rectangle_4516" data-name="Rectangle 4516" class="cls-1" width="312.175" height="230.5" transform="translate(-1504 15797)"/>
    </clipPath>
  </defs>
  <g id="mobile_frame" transform="translate(7838.088 -11667.25)">
    <g id="Mask_Group_57" data-name="Mask Group 57" class="cls-2" transform="translate(-6334.088 -4129.75)">
      <g id="Group_45929" data-name="Group 45929" transform="translate(-1501.119 15766.484)">
        <g id="Group_45924" data-name="Group 45924" transform="translate(0.207 33.675)">
          <g id="Group_45922" data-name="Group 45922" transform="translate(0 0)">
            <path id="Path_18208" data-name="Path 18208" class="cls-3" d="M302.884,587.373a42.759,42.759,0,0,1-42.914,42.8L44.6,629.944A42.759,42.759,0,0,1,1.8,587.03L2.372,44.6a42.589,42.589,0,0,1,42.8-42.8l215.37.229a42.759,42.759,0,0,1,42.8,42.914Z" transform="translate(0.26 0.26)"/>
            <path id="Path_18209" data-name="Path 18209" class="cls-4" d="M260.229,632.493l-215.37-.229A44.957,44.957,0,0,1,0,587.29L.572,44.859A44.932,44.932,0,0,1,45.431,0L260.8.229A44.956,44.956,0,0,1,305.661,45.2l-.572,542.431A44.859,44.859,0,0,1,260.229,632.493ZM45.431,4.005A40.878,40.878,0,0,0,4.577,44.859L4.005,587.29a40.878,40.878,0,0,0,40.854,40.854l215.37.229a40.878,40.878,0,0,0,40.854-40.854l.572-542.431A40.878,40.878,0,0,0,260.8,4.234Z"/>
          </g>
          <path id="Path_18210" data-name="Path 18210" class="cls-5" d="M110.419,36.81a7.21,7.21,0,1,1-7.21-7.21A7.253,7.253,0,0,1,110.419,36.81Z" transform="translate(-6 4.273)"/>
          <path id="Path_18211" data-name="Path 18211" class="cls-5" d="M178.689,36.462a3.591,3.591,0,0,1-3.662,3.548H126.048a3.591,3.591,0,0,1-3.548-3.662h0a3.591,3.591,0,0,1,3.662-3.548h48.979a3.666,3.666,0,0,1,3.548,3.662Z" transform="translate(2.501 4.735)"/>
          <path id="Path_18212" data-name="Path 18212" class="cls-5" d="M138.7,17.549a4.347,4.347,0,0,1-4.349,4.349h0A4.347,4.347,0,0,1,130,17.549h0a4.347,4.347,0,0,1,4.349-4.349h0a4.5,4.5,0,0,1,4.349,4.349Z" transform="translate(18 1.906)"/>
          <g id="Group_45923" data-name="Group 45923" transform="translate(130.572 572.184)">
            <path id="Path_18213" data-name="Path 18213" class="cls-3" d="M157.9,522.3a21.4,21.4,0,1,1-21.4-21.4A21.44,21.44,0,0,1,157.9,522.3Z" transform="translate(-113.956 -499.87)"/>
            <path id="Path_18214" data-name="Path 18214" class="cls-5" d="M136.53,544.859a22.43,22.43,0,1,1,22.43-22.43A22.466,22.466,0,0,1,136.53,544.859Zm.114-42.914a20.37,20.37,0,1,0,20.37,20.37A20.415,20.415,0,0,0,136.644,501.945Z" transform="translate(-114.1 -500)"/>
          </g>
          <path id="Path_18215" data-name="Path 18215" class="cls-6" d="M285.59,552.871l-269.5-.229a3.859,3.859,0,0,1-3.891-3.891l.458-478.461A3.859,3.859,0,0,1,16.549,66.4l269.5.229a3.859,3.859,0,0,1,3.891,3.891L289.48,548.98A3.932,3.932,0,0,1,285.59,552.871ZM16.549,68.46a1.808,1.808,0,0,0-1.831,1.831L14.26,548.637a1.808,1.808,0,0,0,1.831,1.831l269.5.229a1.808,1.808,0,0,0,1.831-1.831l.458-478.346a1.808,1.808,0,0,0-1.831-1.831Z" transform="translate(1.761 9.586)"/>
        </g>
      </g>
    </g>
  </g>
</svg>
