<svg xmlns="http://www.w3.org/2000/svg" width="32.203" height="16.354" viewBox="0 0 32.203 16.354"><defs><style>.a{fill:#777;}</style></defs><g transform="translate(0 -82.289)"><g transform="translate(11.699 87.321)"><g transform="translate(0 0)"><path class="a" d="M187.071,256.182a.629.629,0,1,0,0,.889A.628.628,0,0,0,187.071,256.182Z" transform="translate(-185.997 -255.997)"/></g></g><g transform="translate(14.215 88.579)"><g transform="translate(0 0)"><path class="a" d="M227.887,276a1.887,1.887,0,1,0,1.887,1.887A1.889,1.889,0,0,0,227.887,276Zm0,2.516a.629.629,0,1,1,.629-.629A.63.63,0,0,1,227.887,278.516Z" transform="translate(-226 -276)"/></g></g><g transform="translate(11.07 85.434)"><g transform="translate(0 0)"><path class="a" d="M181.032,226a4.99,4.99,0,0,0-2.021.422.629.629,0,0,0,.506,1.152,3.74,3.74,0,0,1,1.514-.316,3.774,3.774,0,1,1-3.774,3.774c0-.022,0-.042,0-.064a.629.629,0,1,0-1.258-.029c0,.031,0,.062,0,.093A5.032,5.032,0,1,0,181.032,226Z" transform="translate(-176 -226)"/></g></g><g transform="translate(0 82.29)"><g transform="translate(0 0)"><path class="a" d="M32.045,184.284C28.05,179.761,22.117,176,16.1,176S4.152,179.762.158,184.284a.629.629,0,0,0,.943.833c.134-.152.271-.3.41-.453a17.688,17.688,0,0,0,29.181,0c.139.15.276.3.41.453a.629.629,0,0,0,.943-.833ZM16.1,191.1A16.4,16.4,0,0,1,2.41,183.737c2.241-2.2,7.419-6.48,13.692-6.48s11.451,4.284,13.692,6.48A16.4,16.4,0,0,1,16.1,191.1Z" transform="translate(0 -176)"/></g></g></g></svg>