<svg xmlns="http://www.w3.org/2000/svg" viewBox="6418 -14706 35 35">
  <defs>
    <style>
      .cls-1 {
        fill: #f7f7f7;
      }

      .cls-2 {
        opacity: 0.252;
      }
    </style>
  </defs>
  <g id="profilepic_bg_ico" transform="translate(5313 -14714)">
    <circle id="Ellipse_784" data-name="Ellipse 784" class="cls-1" cx="17.5" cy="17.5" r="17.5" transform="translate(1105 8)"/>
    <g id="flaticon1491894655-svg" class="cls-2" transform="translate(1078.927 16)">
      <g id="Group_27717" data-name="Group 27717" transform="translate(36.073)">
        <path id="Path_26712" data-name="Path 26712" d="M140.97,9.859h.121A3.5,3.5,0,0,0,143.762,8.7c1.459-1.644,1.216-4.463,1.19-4.732A3.865,3.865,0,0,0,143.114.534,4.213,4.213,0,0,0,141.076,0h-.064a4.219,4.219,0,0,0-2.038.519,3.868,3.868,0,0,0-1.86,3.452c-.027.269-.269,3.088,1.19,4.732A3.482,3.482,0,0,0,140.97,9.859Zm-2.845-5.793c0-.011,0-.023,0-.03.125-2.717,2.054-3.008,2.88-3.008h.045c1.023.023,2.762.44,2.88,3.008a.074.074,0,0,0,0,.03c0,.027.269,2.6-.936,3.959a2.483,2.483,0,0,1-1.951.811h-.038a2.475,2.475,0,0,1-1.947-.811C137.863,6.676,138.12,4.088,138.124,4.065Z" transform="translate(-133.255)"/>
        <path id="Path_26713" data-name="Path 26713" d="M51.635,263.956v-.011c0-.03,0-.061,0-.095-.023-.75-.072-2.5-1.716-3.065l-.038-.011a10.933,10.933,0,0,1-3.145-1.432.511.511,0,1,0-.587.837,11.8,11.8,0,0,0,3.459,1.58c.883.314.981,1.258,1.008,2.122a.761.761,0,0,0,0,.095,6.878,6.878,0,0,1-.08,1.171,13.944,13.944,0,0,1-6.68,1.553,14.025,14.025,0,0,1-6.684-1.557,6.51,6.51,0,0,1-.08-1.171c0-.03,0-.061,0-.095.027-.864.125-1.807,1.008-2.122a11.911,11.911,0,0,0,3.459-1.58.511.511,0,1,0-.587-.837,10.812,10.812,0,0,1-3.145,1.432l-.038.011c-1.644.565-1.694,2.319-1.716,3.065a.759.759,0,0,1,0,.095v.011a5.811,5.811,0,0,0,.193,1.716.486.486,0,0,0,.2.239,14.331,14.331,0,0,0,7.4,1.811,14.374,14.374,0,0,0,7.4-1.811.507.507,0,0,0,.2-.239A6.1,6.1,0,0,0,51.635,263.956Z" transform="translate(-36.073 -249.422)"/>
      </g>
    </g>
  </g>
</svg>
