<svg xmlns="http://www.w3.org/2000/svg" width="17.225" height="20.594" viewBox="0 0 17.225 20.594">
  <g id="notification" transform="translate(-42.501 0.15)">
    <g id="Group_50055" data-name="Group 50055" transform="translate(42.657 2.959)">
      <g id="Group_50054" data-name="Group 50054">
        <path id="Path_44720" data-name="Path 44720" d="M59.509,88.824,58.056,86.4a7.193,7.193,0,0,1-1.024-3.7v-2.12a5.919,5.919,0,0,0-11.838,0v2.12a7.193,7.193,0,0,1-1.024,3.7l-1.453,2.42a.422.422,0,0,0,.363.64H59.146a.422.422,0,0,0,.363-.64Zm-15.681-.205,1.068-1.78a8.031,8.031,0,0,0,1.145-4.133v-2.12a5.073,5.073,0,0,1,10.147,0v2.12a8.039,8.039,0,0,0,1.144,4.133l1.069,1.78Z" transform="translate(-42.657 -74.667)" fill="#7c7b7b" stroke="#7c7b7b" stroke-width="0.3"/>
      </g>
    </g>
    <g id="Group_50057" data-name="Group 50057" transform="translate(49.422)">
      <g id="Group_50056" data-name="Group 50056">
        <path id="Path_44721" data-name="Path 44721" d="M215.024,0a1.693,1.693,0,0,0-1.691,1.691V3.382a.423.423,0,0,0,.846,0V1.691a.846.846,0,0,1,1.691,0V3.382a.423.423,0,0,0,.846,0V1.691A1.693,1.693,0,0,0,215.024,0Z" transform="translate(-213.333)" fill="#7c7b7b" stroke="#7c7b7b" stroke-width="0.3"/>
      </g>
    </g>
    <g id="Group_50059" data-name="Group 50059" transform="translate(48.999 16.911)">
      <g id="Group_50058" data-name="Group 50058">
        <path id="Path_44722" data-name="Path 44722" d="M206.61,426.888a.423.423,0,1,0-.731.428,1.268,1.268,0,1,1-2.2,0,.423.423,0,1,0-.731-.428,2.115,2.115,0,1,0,3.658,0Z" transform="translate(-202.666 -426.68)" fill="#7c7b7b" stroke="#7c7b7b" stroke-width="0.3"/>
      </g>
    </g>
  </g>
</svg>
