<svg xmlns="http://www.w3.org/2000/svg" width="21.258" height="18.381" viewBox="0 0 21.258 18.381">
  <g id="message-on-phone" transform="translate(-228.211 -46.813)">
    <path id="Path_44715" data-name="Path 44715" d="M536.212,234.063h-3.189a.531.531,0,0,0,0,1.063h3.189a.531.531,0,1,0,0-1.063Z" transform="translate(-290.464 -178.747)" fill="#7c7b7b"/>
    <path id="Path_44716" data-name="Path 44716" d="M298.961,235.125h8.5a.531.531,0,0,0,0-1.063h-8.5a.531.531,0,0,0,0,1.063Z" transform="translate(-67.03 -178.747)" fill="#7c7b7b"/>
    <path id="Path_44717" data-name="Path 44717" d="M312.779,117.031H298.961a.531.531,0,0,0,0,1.063h13.818a.531.531,0,0,0,0-1.063Z" transform="translate(-67.03 -66.03)" fill="#7c7b7b"/>
    <path id="Path_44719" data-name="Path 44719" d="M245.749,46.813H231.931a3.724,3.724,0,0,0-3.72,3.72V58.5a3.726,3.726,0,0,0,3.189,3.682V64.13a1.063,1.063,0,0,0,1.814.752l2.657-2.657h9.877a3.724,3.724,0,0,0,3.72-3.72V50.533A3.724,3.724,0,0,0,245.749,46.813ZM248.406,58.5a2.66,2.66,0,0,1-2.657,2.657h-10.1a.532.532,0,0,0-.376.156l-2.813,2.813V61.693a.531.531,0,0,0-.531-.531,2.66,2.66,0,0,1-2.657-2.657V50.533a2.66,2.66,0,0,1,2.657-2.657h13.818a2.66,2.66,0,0,1,2.657,2.657Z" transform="translate(0 0)" fill="#7c7b7b"/>
  </g>
</svg>
