<svg xmlns="http://www.w3.org/2000/svg" viewBox="0 0 14.777 13.641">
  <defs>
    <style>
      .cls-1 {
        fill: #676566;
      }
    </style>
  </defs>
  <g id="uploadgray_ico" transform="translate(0 -1)">
    <path id="Path_18006" data-name="Path 18006" class="cls-1" d="M14.209,17H13.072a.537.537,0,0,0-.568.568v1.421a.268.268,0,0,1-.284.284H2.558a.268.268,0,0,1-.284-.284V17.568A.537.537,0,0,0,1.705,17H.568A.537.537,0,0,0,0,17.568v3.41a.537.537,0,0,0,.568.568H14.209a.537.537,0,0,0,.568-.568v-3.41A.537.537,0,0,0,14.209,17Z" transform="translate(0 -6.906)"/>
    <path id="Path_18007" data-name="Path 18007" class="cls-1" d="M6.966,6.172a.549.549,0,0,0,.8,0L8.33,5.6a.306.306,0,0,1,.512.227V9.582a.537.537,0,0,0,.568.568h1.137a.537.537,0,0,0,.568-.568V5.831a.314.314,0,0,1,.512-.227l.568.568a.549.549,0,0,0,.8,0l.8-.8a.549.549,0,0,0,0-.8l-3.41-3.41a.549.549,0,0,0-.8,0l-3.41,3.41a.549.549,0,0,0,0,.8Z" transform="translate(-2.59)"/>
  </g>
</svg>
