<?xml version="1.0" encoding="iso-8859-1"?>
<!-- Generator: Adobe Illustrator 16.0.0, SVG Export Plug-In . SVG Version: 6.00 Build 0)  -->
<!DOCTYPE svg PUBLIC "-//W3C//DTD SVG 1.1//EN" "http://www.w3.org/Graphics/SVG/1.1/DTD/svg11.dtd">
<svg version="1.1" id="Capa_1" xmlns="http://www.w3.org/2000/svg" xmlns:xlink="http://www.w3.org/1999/xlink" x="0px" y="0px"
	 width="31.334px" height="31.334px" viewBox="0 0 31.334 31.334" style="enable-background:new 0 0 31.334 31.334;"
	 xml:space="preserve">
	 <defs>
	 <style>
	 	g {
	 	fill: #EABB57;
	 	}
	 </style>
	 </defs>
<g>
	<path d="M31.334,24.584v2H0v-2h2.167v-1.518c-1.163-0.414-2.001-1.515-2.001-2.816c0-1.305,0.838-2.404,2.001-2.816v-2.031
		c-1.163-0.413-2.001-1.513-2.001-2.816c0-1.306,0.838-2.403,2.001-2.817V4.752h2v5.017c1.163,0.414,2.001,1.514,2.001,2.817
		c0,1.303-0.838,2.403-2.001,2.816v2.031c1.163,0.412,2.001,1.512,2.001,2.816s-0.838,2.402-2.001,2.816v1.518H10.5V15.4
		c-1.163-0.414-2.001-1.515-2.001-2.816c0-1.305,0.838-2.404,2.001-2.816V4.75h2v5.018c1.163,0.412,2.001,1.513,2.001,2.816
		c0,1.305-0.838,2.402-2.001,2.816v9.184h6.334v-1.518c-1.163-0.414-2.001-1.515-2.001-2.816c0-1.305,0.838-2.404,2.001-2.816V4.75
		h2v12.684c1.163,0.412,2.001,1.512,2.001,2.816s-0.838,2.402-2.001,2.816v1.518h6.333v-1.518c-1.163-0.414-2.001-1.515-2.001-2.816
		c0-1.305,0.838-2.404,2.001-2.816v-2.031c-1.163-0.413-2.001-1.513-2.001-2.816c0-1.306,0.838-2.403,2.001-2.817V4.752h2v5.017
		c1.163,0.414,2.001,1.514,2.001,2.817c0,1.303-0.838,2.403-2.001,2.816v2.031c1.163,0.412,2.001,1.512,2.001,2.816
		s-0.838,2.402-2.001,2.816v1.518H31.334z"/>
</g>
<g>
</g>
<g>
</g>
<g>
</g>
<g>
</g>
<g>
</g>
<g>
</g>
<g>
</g>
<g>
</g>
<g>
</g>
<g>
</g>
<g>
</g>
<g>
</g>
<g>
</g>
<g>
</g>
<g>
</g>
</svg>
