<?xml version="1.0" encoding="iso-8859-1"?>
<!-- Generator: Adobe Illustrator 19.0.0, SVG Export Plug-In . SVG Version: 6.00 Build 0)  -->
<svg version="1.1" id="Layer_1" xmlns="http://www.w3.org/2000/svg" xmlns:xlink="http://www.w3.org/1999/xlink" x="0px" y="0px"
	 viewBox="0 0 496 496" style="enable-background:new 0 0 496 496;" xml:space="preserve">
	 <defs>
	 <style>
	 	g {
	 	fill: #EABB57;
	 	}
	 </style>
	 </defs>
<g>
	<g>
		<g>
			<path d="M32,256h208V144H32V256z M48,160h176v80H48V160z"/>
			<path d="M48,328h48v-48H48V328z M64,296h16v16H64V296z"/>
			<path d="M112,328h48v-48h-48V328z M128,296h16v16h-16V296z"/>
			<path d="M176,328h48v-48h-48V328z M192,296h16v16h-16V296z"/>
			<path d="M48,392h48v-48H48V392z M64,360h16v16H64V360z"/>
			<path d="M112,392h48v-48h-48V392z M128,360h16v16h-16V360z"/>
			<path d="M176,392h48v-48h-48V392z M192,360h16v16h-16V360z"/>
			<path d="M48,456h48v-48H48V456z M64,424h16v16H64V424z"/>
			<path d="M112,456h48v-48h-48V456z M128,424h16v16h-16V424z"/>
			<path d="M176,456h48v-48h-48V456z M192,424h16v16h-16V424z"/>
			<rect x="192" y="208" width="16" height="16"/>
			<rect x="128" y="208" width="48" height="16"/>
			<rect x="80" y="48" width="112" height="16"/>
			<rect x="176" y="80" width="16" height="16"/>
			<path d="M400,148.248V112c0-13.232-10.768-24-24-24H272v-8c0-17.648-14.352-32-32-32h-16V0H48v48H32C14.352,48,0,62.352,0,80
				l0.04,248.8l13.832,138.392C15.512,483.608,29.208,496,45.72,496h180.56c16.504,0,30.2-12.392,31.84-28.816L269.608,352h44.68
				C312.8,360.76,312,369.624,312,378.504c0,31.352,9.192,61.712,26.584,87.8l5.416,8.12V496h16v-26.424l-8.104-12.16
				C336.264,433.976,328,406.68,328,378.504c0-11.616,1.432-23.224,4.24-34.512l11.512-46.048L344,225.496
				c0-9.656,7.84-17.496,17.488-17.496c8.808,0,16.264,6.584,17.36,15.32L392.936,336h22.224l9.088-81.8L400,213.784v-44.696
				l80,66.664v75.216L440.264,461.96L440,496h16v-30.968l39.736-150.992L496,228.248L400,148.248z M64,16h16v16h16V16h16v16h16V16
				h16v16h16V16h16v16h16V16h16v96H64V16z M242.2,465.592c-0.816,8.216-7.664,14.408-15.92,14.408H45.72
				c-8.256,0-15.104-6.192-15.92-14.408L16,328V80c0-8.816,7.176-16,16-16h16v48H32v16h208v-16h-16V64h16c8.816,0,16,7.184,16,16
				l0.04,247.2L242.2,465.592z M384,200.824c-5.992-5.464-13.888-8.824-22.512-8.824C343.024,192,328,207.024,328,225.496v69.52
				L317.744,336H271.2l0.8-8V152v-48h104c4.416,0,8,3.584,8,8V200.824z M407.752,257.8l-3.984,35.848L400,263.536v-18.648
				L407.752,257.8z"/>
			<path d="M304,184c5.64,0,11.152-1.52,16-4.368c4.848,2.848,10.36,4.368,16,4.368c17.648,0,32-14.352,32-32s-14.352-32-32-32
				c-5.64,0-11.152,1.52-16,4.368c-4.848-2.848-10.36-4.368-16-4.368c-17.648,0-32,14.352-32,32S286.352,184,304,184z M304,136
				c3.88,0,7.656,1.48,10.648,4.168l5.352,4.824l5.352-4.824C328.344,137.48,332.12,136,336,136c8.816,0,16,7.176,16,16
				c0,8.824-7.184,16-16,16c-3.88,0-7.656-1.48-10.648-4.168L320,159.008l-5.352,4.824C311.656,166.52,307.88,168,304,168
				c-8.824,0-16-7.176-16-16C288,143.176,295.176,136,304,136z"/>
			<rect x="288" y="200" width="16" height="88"/>
			<rect x="288" y="304" width="16" height="16"/>
		</g>
	</g>
</g>
<g>
</g>
<g>
</g>
<g>
</g>
<g>
</g>
<g>
</g>
<g>
</g>
<g>
</g>
<g>
</g>
<g>
</g>
<g>
</g>
<g>
</g>
<g>
</g>
<g>
</g>
<g>
</g>
<g>
</g>
</svg>
