<?xml version="1.0" encoding="iso-8859-1"?>
<!-- Generator: Adobe Illustrator 19.0.0, SVG Export Plug-In . SVG Version: 6.00 Build 0)  -->
<svg version="1.1" id="Layer_1" xmlns="http://www.w3.org/2000/svg" xmlns:xlink="http://www.w3.org/1999/xlink" x="0px" y="0px"
	 viewBox="0 0 496 496" style="enable-background:new 0 0 496 496;" xml:space="preserve">
	 <defs>
	 <style>
	 	g {
	 	fill: #EABB57;
	 	}
	 </style>
	 </defs>
<g>
	<g>
		<g>
			<path d="M200,160H24c-13.232,0-24,10.768-24,24v288c0,13.232,10.768,24,24,24h176c13.232,0,24-10.768,24-24V184
				C224,170.768,213.232,160,200,160z M208,472c0,4.416-3.584,8-8,8H24c-4.416,0-8-3.584-8-8v-24h192V472z M208,432H16V208h192V432z
				 M208,192H16v-8c0-4.416,3.584-8,8-8h176c4.416,0,8,3.584,8,8V192z"/>
			<rect x="80" y="456" width="64" height="16"/>
			<path d="M472,160H296c-13.232,0-24,10.768-24,24v288c0,13.232,10.768,24,24,24h176c13.232,0,24-10.768,24-24V184
				C496,170.768,485.232,160,472,160z M480,472c0,4.416-3.584,8-8,8H296c-4.416,0-8-3.584-8-8v-24h192V472z M480,432H288V208h192
				V432z M480,192H288v-8c0-4.416,3.584-8,8-8h176c4.416,0,8,3.584,8,8V192z"/>
			<rect x="352" y="456" width="64" height="16"/>
			<path d="M320,72c0-39.704-32.296-72-72-72c-39.704,0-72,32.296-72,72s32.296,72,72,72C287.704,144,320,111.704,320,72z M248,128
				c-30.872,0-56-25.128-56-56s25.128-56,56-56s56,25.128,56,56S278.872,128,248,128z"/>
			<path d="M244,56h8c2.2,0,4,1.8,4,4h16c0-9.664-6.88-17.736-16-19.6V32h-16v8.4c-9.12,1.856-16,9.936-16,19.6
				c0,11.032,8.968,20,20,20h8c2.2,0,4,1.8,4,4s-1.8,4-4,4h-8c-2.2,0-4-1.8-4-4h-16c0,9.664,6.88,17.736,16,19.6v8.4h16v-8.4
				c9.12-1.856,16-9.936,16-19.6c0-11.032-8.968-20-20-20h-8c-2.2,0-4-1.8-4-4S241.8,56,244,56z"/>
			<path d="M112,392c39.704,0,72-32.296,72-72c0-39.704-32.296-72-72-72s-72,32.296-72,72C40,359.704,72.296,392,112,392z M112,264
				c30.872,0,56,25.128,56,56s-25.128,56-56,56s-56-25.128-56-56S81.128,264,112,264z"/>
			<path d="M116,336h-8c-2.2,0-4-1.8-4-4H88c0,9.664,6.88,17.736,16,19.6v8.4h16v-8.4c9.12-1.856,16-9.936,16-19.6
				c0-11.032-8.968-20-20-20h-8c-2.2,0-4-1.8-4-4s1.8-4,4-4h8c2.2,0,4,1.8,4,4h16c0-9.664-6.88-17.736-16-19.6V280h-16v8.4
				c-9.12,1.856-16,9.936-16,19.6c0,11.032,8.968,20,20,20h8c2.2,0,4,1.8,4,4S118.2,336,116,336z"/>
			<path d="M64,88c0-22.056,17.944-40,40-40h28.688l-18.344,18.344l11.312,11.312L163.312,40L125.656,2.344l-11.312,11.312
				L132.688,32H104c-30.872,0-56,25.128-56,56v48h16V88z"/>
			<path d="M432,88v28.688l-18.344-18.344l-11.312,11.312L440,147.312l37.656-37.656l-11.312-11.312L448,116.688V88
				c0-30.872-25.128-56-56-56h-48v16h48C414.056,48,432,65.944,432,88z"/>
			<path d="M336,400h96v-96h32v-64h-64v8c0,8.824-7.184,16-16,16c-8.824,0-16-7.176-16-16v-8h-64v64h32V400z M416,384h-64v-32h64
				V384z M416,336h-64v-16h64V336z M320,288v-32h33.016c3.552,13.792,16.104,24,30.984,24s27.432-10.208,30.984-24H448v32h-32v16
				h-64v-16H320z"/>
		</g>
	</g>
</g>
<g>
</g>
<g>
</g>
<g>
</g>
<g>
</g>
<g>
</g>
<g>
</g>
<g>
</g>
<g>
</g>
<g>
</g>
<g>
</g>
<g>
</g>
<g>
</g>
<g>
</g>
<g>
</g>
<g>
</g>
</svg>
