<?xml version="1.0" encoding="iso-8859-1"?>
<!-- Generator: Adobe Illustrator 19.0.0, SVG Export Plug-In . SVG Version: 6.00 Build 0)  -->
<svg version="1.1" id="Capa_1" xmlns="http://www.w3.org/2000/svg" xmlns:xlink="http://www.w3.org/1999/xlink" x="0px" y="0px"
	 viewBox="0 0 512 512" style="enable-background:new 0 0 512 512;" xml:space="preserve">
	 <defs>
	 <style>
	 	g {
	 	fill: #EABB57;
	 	}
	 </style>
	 </defs>
<g>
	<g>
		<g>
			<path d="M479.894,266.667H368.811c9.915-23.512,15.067-48.821,15.081-74.455C383.949,88.595,301.867,4.13,199.16,0.36
				C196.758,0.13,194.337,0,191.894,0c-2.486,0-4.949,0.135-7.393,0.373C82.046,4.31,0.163,88.569,0.106,192.001
				c-0.056,102.4,80.107,186.102,181.121,191.693V480c0,17.673,14.327,32,32,32h266.667c17.673,0,32-14.327,32-32V298.667
				C511.894,280.994,497.567,266.667,479.894,266.667z M300.067,266.667c5.301-20.943,8.327-42.4,9.009-64h53.231
				c-1.343,21.664-6.868,43.385-16.915,64H300.067z M181.227,298.667v62.886c-27.89-5.774-52.591-33.818-68.148-73.553h46.815
				v-21.333h-53.957c-5.545-19.64-9.008-41.299-9.84-64h85.13v42.667h21.333v-42.667h85.175c-0.733,21.637-4.003,43.115-9.727,64
				h-64.781C195.554,266.667,181.227,280.994,181.227,298.667z M21.592,202.667h53.143c0.725,22.695,3.755,44.226,8.722,64H38.472
				C28.765,246.673,23.006,224.911,21.592,202.667z M83.456,117.333c-4.967,19.774-7.997,41.305-8.722,64H21.569
				c1.343-21.664,6.868-43.385,16.915-64H83.456z M362.284,181.333h-53.231c-0.725-22.695-3.755-44.226-8.722-64h45.073
				C355.112,137.327,360.87,159.089,362.284,181.333z M287.691,181.333h-85.13v-64h75.29
				C283.396,136.974,286.858,158.632,287.691,181.333z M202.561,96V22.447c27.89,5.774,52.591,33.818,68.148,73.553H202.561z
				 M181.227,22.447V96h-68.148C128.636,56.265,153.337,28.221,181.227,22.447z M181.227,117.333v64h-85.13
				c0.833-22.701,4.295-44.36,9.84-64H181.227z M333.072,96h-39.075c-8.219-23.752-19.451-44.185-32.9-60.026
				c3.752,1.667,7.472,3.474,11.151,5.436C297.529,54.892,318.022,73.835,333.072,96z M122.644,36.031
				C109.216,51.864,98.001,72.277,89.792,96H50.825C69.176,68.954,94.29,48.604,122.644,36.031z M50.805,288h38.987
				c8.203,23.705,19.407,44.105,32.822,59.933c-3.715-1.652-7.383-3.422-10.984-5.342C86.347,329.108,65.854,310.165,50.805,288z
				 M490.561,480c0,5.891-4.776,10.667-10.667,10.667H213.227c-5.891,0-10.667-4.776-10.667-10.667V298.667
				c0-5.891,4.776-10.667,10.667-10.667h266.667c5.891,0,10.667,4.776,10.667,10.667V480z"/>
			<path d="M341.227,352c5.891,0,10.667,4.776,10.667,10.667h21.333c0-13.932-8.906-25.778-21.333-30.172V320h-21.333v12.495
				c-12.427,4.394-21.333,16.24-21.333,30.172c0,17.673,14.327,32,32,32c5.891,0,10.667,4.776,10.667,10.667
				c0,5.891-4.776,10.667-10.667,10.667c-5.891,0-10.667-4.776-10.667-10.667h-21.333c0,13.932,8.906,25.778,21.333,30.172V448
				h21.333v-12.495c12.427-4.394,21.333-16.24,21.333-30.172c0-17.673-14.327-32-32-32c-5.891,0-10.667-4.776-10.667-10.667
				S335.336,352,341.227,352z"/>
			<path d="M458.561,309.333h-42.667v21.333h32v32h21.333V320C469.227,314.109,464.452,309.333,458.561,309.333z"/>
			<rect x="223.894" y="448" width="21.333" height="21.333"/>
			<rect x="266.561" y="448" width="21.333" height="21.333"/>
		</g>
	</g>
</g>
<g>
</g>
<g>
</g>
<g>
</g>
<g>
</g>
<g>
</g>
<g>
</g>
<g>
</g>
<g>
</g>
<g>
</g>
<g>
</g>
<g>
</g>
<g>
</g>
<g>
</g>
<g>
</g>
<g>
</g>
</svg>
