<svg xmlns="http://www.w3.org/2000/svg" width="46.057" height="25.77" viewBox="0 0 46.057 25.77"><defs><style>.a{fill:#12be47;}</style></defs><g transform="translate(10.048)"><path class="a" d="M31.693,88.8a4.15,4.15,0,0,0-1.391.24l-.595-1.235a5.434,5.434,0,0,1,4.239.108.575.575,0,0,0,.768-.313.615.615,0,0,0-.3-.8,6.557,6.557,0,0,0-5.229-.085l-2.161-4.489a1.765,1.765,0,0,0,.314.029h1.244a.6.6,0,0,0,.583-.606V79.069a.6.6,0,0,0-.583-.606H27.337A1.823,1.823,0,0,0,25.709,79.5l-.617-1.281a1.812,1.812,0,0,0-1.635-1.049h-1.1a.606.606,0,0,0,0,1.212h1.1a.655.655,0,0,1,.591.38L25.559,81.9l-.284.147a1.9,1.9,0,0,0-1.01,1.7V90.1H19.249a1.946,1.946,0,0,1-1.905-1.979V85.491h.039a1.9,1.9,0,0,0,0-3.8H12.4a1.788,1.788,0,0,0-1.283.548v-8.99A1.231,1.231,0,0,0,9.916,72H1.205A1.231,1.231,0,0,0,0,73.252V82.3a1.231,1.231,0,0,0,1.205,1.252H2.515a1.648,1.648,0,0,0-.041.383A1.558,1.558,0,0,0,4,85.491H7.132a7.837,7.837,0,0,0-1.013.8,7.56,7.56,0,0,0-2.2,3.587,1.732,1.732,0,0,0,.306,1.441,1.575,1.575,0,0,0,1.259.632H5.8a4.655,4.655,0,0,0-.2,1.336A4.407,4.407,0,0,0,9.916,97.77a4.381,4.381,0,0,0,4.276-3.878H25.471a.6.6,0,0,0,.583-.606,6.12,6.12,0,0,1,.113-1.172,5.855,5.855,0,0,1,2.5-3.763l.594,1.235a4.532,4.532,0,0,0-1.883,3.7A4.32,4.32,0,1,0,31.693,88.8ZM12.4,82.906h4.977a.687.687,0,0,1,0,1.373H12.4a.687.687,0,0,1,0-1.373ZM1.167,73.252a.04.04,0,0,1,.039-.04H9.916a.04.04,0,0,1,.039.04v1.333H1.167Zm.039,9.088a.04.04,0,0,1-.039-.04V75.8H9.955v6.5a.04.04,0,0,1-.039.04ZM4,84.279a.364.364,0,0,1-.355-.363.374.374,0,0,1,.1-.265.349.349,0,0,1,.17-.1l6.665,0c0,.013,0,.026,0,.038a1.953,1.953,0,0,0,.124.687Zm1.49,6.46h0a.427.427,0,0,1-.345-.172.491.491,0,0,1-.085-.409,6.478,6.478,0,0,1,6.105-4.667c2.669,0,3.663,2.649,3.663,4.319,0,.453-.241.912-.7.913Zm5.091,2.547a.662.662,0,1,1-.661-.687A.675.675,0,0,1,10.577,93.286Zm-.661,3.272a3.216,3.216,0,0,1-3.15-3.272,3.384,3.384,0,0,1,.277-1.338l1.581,0a1.93,1.93,0,0,0-.536,1.341,1.829,1.829,0,1,0,3.655,0A1.93,1.93,0,0,0,11.2,91.94l1.581,0a3.382,3.382,0,0,1,.281,1.349A3.216,3.216,0,0,1,9.916,96.558Zm15.108-4.685a7.328,7.328,0,0,0-.111.807H14.193a4.639,4.639,0,0,0-.161-.746h.093A1.966,1.966,0,0,0,15.99,89.81a6.309,6.309,0,0,0-1.153-3.645,5,5,0,0,0-.589-.674h1.928v2.626a3.137,3.137,0,0,0,3.072,3.191h5.6a.566.566,0,0,0,.345-.118C25.127,91.413,25.069,91.64,25.024,91.873Zm2.314-12.2H28v1.373h-.661a.687.687,0,0,1,0-1.373ZM25.432,90.517V83.745a.686.686,0,0,1,.365-.614l.284-.147,2.06,4.28A7.025,7.025,0,0,0,25.432,90.517Zm6.261,6.042a3.274,3.274,0,1,1,3.15-3.272A3.216,3.216,0,0,1,31.693,96.558Z" transform="translate(0 -72)"/><path class="a" d="M385.868,312a1.868,1.868,0,1,0,1.868,1.868A1.87,1.87,0,0,0,385.868,312Zm0,2.544a.676.676,0,1,1,.676-.676A.676.676,0,0,1,385.868,314.544Z" transform="translate(-354.08 -292.63)"/></g><g transform="translate(0 10.173)"><rect class="a" width="6.284" height="1.047" rx="0.524" transform="translate(2.095 0)"/><rect class="a" width="1.047" height="1.047" rx="0.524" transform="translate(0 0)"/><rect class="a" width="2.095" height="1.047" rx="0.524" transform="translate(7.332 2.095)"/><rect class="a" width="1.047" height="1.047" rx="0.524" transform="translate(5.237 2.095)"/></g></svg>