<svg xmlns="http://www.w3.org/2000/svg" width="40.698" height="22.772" viewBox="0 0 40.698 22.772"><defs><style>.a{opacity:0.6;}.b{fill:#3b3b3b;}</style></defs><g class="a"><g transform="translate(8.879)"><path class="b" d="M28.006,86.848a3.667,3.667,0,0,0-1.229.212l-.525-1.092a4.8,4.8,0,0,1,3.746.1.509.509,0,0,0,.679-.276.544.544,0,0,0-.266-.7,5.794,5.794,0,0,0-4.621-.076l-1.91-3.967a1.56,1.56,0,0,0,.278.025h1.1a.526.526,0,0,0,.515-.535V78.246a.526.526,0,0,0-.515-.535h-1.1a1.611,1.611,0,0,0-1.439.917L22.173,77.5a1.6,1.6,0,0,0-1.445-.927h-.97a.536.536,0,0,0,0,1.071h.97a.579.579,0,0,1,.523.335l1.335,2.773-.251.13a1.676,1.676,0,0,0-.893,1.5V87.99H17.009a1.719,1.719,0,0,1-1.684-1.749v-2.32h.034a1.679,1.679,0,0,0,0-3.355h-4.4a1.58,1.58,0,0,0-1.134.484V73.106A1.088,1.088,0,0,0,8.762,72h-7.7A1.088,1.088,0,0,0,0,73.106v8a1.088,1.088,0,0,0,1.065,1.106H2.222a1.456,1.456,0,0,0-.036.338,1.377,1.377,0,0,0,1.345,1.375H6.3a6.925,6.925,0,0,0-.9.708A6.681,6.681,0,0,0,3.464,87.8a1.53,1.53,0,0,0,.27,1.273,1.392,1.392,0,0,0,1.113.558h.274a4.113,4.113,0,0,0-.173,1.18,3.9,3.9,0,0,0,3.814,3.962,3.871,3.871,0,0,0,3.778-3.427h9.967a.526.526,0,0,0,.515-.535,5.409,5.409,0,0,1,.1-1.036,5.174,5.174,0,0,1,2.207-3.326l.525,1.091a4,4,0,0,0-1.664,3.27,3.817,3.817,0,1,0,3.814-3.962ZM10.962,81.637h4.4a.607.607,0,0,1,0,1.214h-4.4a.607.607,0,0,1,0-1.214ZM1.031,73.106a.035.035,0,0,1,.034-.036h7.7a.035.035,0,0,1,.034.036v1.178H1.031Zm.034,8.031a.035.035,0,0,1-.034-.036V75.355H8.8V81.1a.035.035,0,0,1-.034.036Zm2.466,1.713a.321.321,0,0,1-.314-.321.331.331,0,0,1,.09-.234.309.309,0,0,1,.151-.087l5.889,0c0,.011,0,.023,0,.034a1.726,1.726,0,0,0,.11.607Zm1.317,5.709h0a.378.378,0,0,1-.3-.152.434.434,0,0,1-.075-.361,5.724,5.724,0,0,1,5.395-4.124c2.358,0,3.237,2.341,3.237,3.817,0,.4-.213.806-.619.807Zm4.5,2.251a.585.585,0,1,1-.584-.607A.6.6,0,0,1,9.347,90.81ZM8.762,93.7A2.842,2.842,0,0,1,5.979,90.81a2.99,2.99,0,0,1,.244-1.183l1.4,0a1.706,1.706,0,0,0-.473,1.185,1.616,1.616,0,1,0,3.23,0A1.705,1.705,0,0,0,9.9,89.62l1.4,0a2.989,2.989,0,0,1,.249,1.192A2.842,2.842,0,0,1,8.762,93.7Zm13.35-4.14a6.476,6.476,0,0,0-.1.713H12.542a4.1,4.1,0,0,0-.142-.659h.082a1.737,1.737,0,0,0,1.648-1.877,5.575,5.575,0,0,0-1.018-3.221,4.421,4.421,0,0,0-.52-.6h1.7v2.32a2.772,2.772,0,0,0,2.715,2.82h4.948a.5.5,0,0,0,.3-.1C22.2,89.154,22.153,89.355,22.112,89.561Zm2.044-10.78h.584V80h-.584a.607.607,0,0,1,0-1.214Zm-1.684,9.581V82.379a.606.606,0,0,1,.323-.543l.251-.13,1.821,3.782A6.208,6.208,0,0,0,22.473,88.362ZM28.006,93.7a2.893,2.893,0,1,1,2.783-2.891A2.842,2.842,0,0,1,28.006,93.7Z" transform="translate(0 -72)"/><path class="b" d="M385.651,312a1.651,1.651,0,1,0,1.651,1.651A1.653,1.653,0,0,0,385.651,312Zm0,2.248a.6.6,0,1,1,.6-.6A.6.6,0,0,1,385.651,314.248Z" transform="translate(-357.561 -294.883)"/></g><g transform="translate(0 8.99)"><rect class="b" width="5.553" height="0.926" rx="0.463" transform="translate(1.851 0)"/><rect class="b" width="0.926" height="0.926" rx="0.463" transform="translate(0 0)"/><rect class="b" width="1.851" height="0.926" rx="0.463" transform="translate(6.479 1.851)"/><rect class="b" width="0.926" height="0.926" rx="0.463" transform="translate(4.628 1.851)"/></g></g></svg>