<svg xmlns="http://www.w3.org/2000/svg" width="26.83" height="16.362" viewBox="0 0 26.83 16.362"><defs><style>.a,.b{fill:#f53c3c;}.b{stroke:#f53c3c;stroke-width:0.3px;}</style></defs><g transform="translate(-740.939 -481.759)"><g transform="translate(740.939 481.848)"><path class="a" d="M24.487,16.273H1.782A1.7,1.7,0,0,1,.446,15.7a2.028,2.028,0,0,1,0-2.537,1.7,1.7,0,0,1,1.337-.576h.612a10.862,10.862,0,0,1,8.9-10.055V1.782A1.7,1.7,0,0,1,11.868.446,1.942,1.942,0,0,1,13.137,0,1.74,1.74,0,0,1,14.98,1.782V2.5a10.759,10.759,0,0,1,2.908.916,3.863,3.863,0,0,0-.533,1.108,9.5,9.5,0,0,0-4.139-.938,9.627,9.627,0,0,0-9.591,9H22.808A9.53,9.53,0,0,0,22.045,9.4a3.858,3.858,0,0,0,1.128-.49,10.745,10.745,0,0,1,.867,3.674h.447a1.7,1.7,0,0,1,1.336.577,2.028,2.028,0,0,1,0,2.537A1.7,1.7,0,0,1,24.487,16.273ZM1.782,13.814a.615.615,0,0,0,0,1.229H24.487a.615.615,0,0,0,0-1.229ZM13.135,1.187a.581.581,0,0,0-.615.595v.6c.239-.015.477-.022.706-.022.174,0,.35,0,.524.012V1.782A.581.581,0,0,0,13.135,1.187Z" transform="translate(0 0)"/><path class="a" d="M305.909,134.731a.615.615,0,0,1,.431,1.152,6.791,6.791,0,0,0-3.182,2.457.615.615,0,0,1-1-.709A8.016,8.016,0,0,1,305.909,134.731Z" transform="translate(-295.555 -129.162)"/></g><path class="b" d="M10.054.494a1.685,1.685,0,0,0-2.384,0L.988,7.176a.374.374,0,0,0-.1.165L.014,10.513a.374.374,0,0,0,.461.461l3.172-.879a.375.375,0,0,0,.165-.1l6.682-6.682a1.687,1.687,0,0,0,0-2.384ZM1.8,7.419,7.273,1.95,9.037,3.714,3.568,9.183Zm-.352.707L2.861,9.535l-1.949.54ZM9.964,2.787l-.4.4L7.8,1.42l.4-.4a.936.936,0,0,1,1.324,0l.44.439A.938.938,0,0,1,9.964,2.787Zm0,0" transform="matrix(0.995, 0.105, -0.105, 0.995, 756.557, 482.035)"/></g></svg>