<svg xmlns="http://www.w3.org/2000/svg" width="31.572" height="29.344" viewBox="0 0 31.572 29.344"><defs><style>.a{opacity:0.6;}.b{fill:#3b3b3b;}</style></defs><g class="a"><path class="b" d="M214.345,300.348a.617.617,0,1,0-.872,0A.618.618,0,0,0,214.345,300.348Zm0,0" transform="translate(-200.14 -280.839)"/><path class="b" d="M224.624,62.237V63.47a3.7,3.7,0,0,0,7.4,0V62.237a.617.617,0,0,0,0-1.233h-1.233a.617.617,0,0,0,0,1.233V63.47a2.467,2.467,0,0,1-4.933,0V62.237a.617.617,0,0,0,0-1.233h-1.233a.617.617,0,1,0,0,1.233Zm0,0" transform="translate(-210.195 -57.242)"/><path class="b" d="M7.167,29.164a.617.617,0,0,0,.872,0L9.932,27.27a2.855,2.855,0,0,0,.828-2.314l.679-.656a2.861,2.861,0,0,1,1.994-.805h8.119a5.519,5.519,0,0,0,3.871-1.573.579.579,0,0,0,.044-.047l5.524-6.634a2.467,2.467,0,0,0-3.754-3.2l-.6.617V.617A.617.617,0,0,0,26.023,0H10.175a.617.617,0,0,0-.617.617V14.433a7.418,7.418,0,0,0-5.3,4.151,2.848,2.848,0,0,0-2.171.837l-1.9,1.894a.617.617,0,0,0,0,.873Zm18.24-27.93v12.7l-1.785,1.845a2.478,2.478,0,0,0-1.915-.916h-7.15a.34.34,0,0,1-.125-.026,7.969,7.969,0,0,0-3.023-.59c-.206,0-.412.007-.617.021V1.233ZM10.263,15.559a7.007,7.007,0,0,1,3.7.419,1.569,1.569,0,0,0,.589.117h7.15a1.233,1.233,0,1,1,0,2.467H16.341a.617.617,0,0,0,0,1.233h5.365a2.469,2.469,0,0,0,2.467-2.467A2.5,2.5,0,0,0,24.151,17c.129-.132,3.856-3.987,3.985-4.12l.027-.03a1.233,1.233,0,1,1,1.882,1.595L24.54,21.06a4.291,4.291,0,0,1-2.988,1.2H13.433a4.088,4.088,0,0,0-2.851,1.151l-.272.263a2.871,2.871,0,0,0-.379-.467L6.144,19.421a2.879,2.879,0,0,0-.68-.5A6.174,6.174,0,0,1,10.263,15.559ZM2.956,20.293a1.635,1.635,0,0,1,2.316,0L9.06,24.081a1.636,1.636,0,0,1,0,2.316L7.6,27.855l-6.112-6.1Zm0,0" transform="translate(0 0)"/></g></svg>